<svg width="24" height="24" viewBox="0 0 24 24" fill="none" xmlns="http://www.w3.org/2000/svg">
<g clip-path="url(#clip0_1622_681)">
<path d="M8.07055 5.36414e-06C8.05697 0.000206025 8.04343 0.00145979 8.03005 0.00375536C7.97681 0.0123763 7.92767 0.0376568 7.8897 0.0759628C7.85173 0.114269 7.82689 0.163627 7.81874 0.216943L5.82749 12.9617L7.13811 10.4664L10.4535 4.15426L8.2993 0.135943L8.29874 0.135755C8.27667 0.0944904 8.24376 0.0600359 8.20354 0.0361119C8.16333 0.0121878 8.11734 -0.00029699 8.07055 5.36414e-06ZM11.8251 2.41969C11.7296 2.41969 11.6426 2.47201 11.5982 2.55657L10.6116 4.43513L10.6106 4.43326L6.10049 13.02L7.5223 11.5959L12.0799 7.03013L13.6012 5.50594L12.0525 2.55657C12.0306 2.51521 11.9979 2.4806 11.9578 2.45648C11.9177 2.43235 11.8718 2.41964 11.8251 2.41969ZM16.0807 3.51751C16.0576 3.51683 16.0344 3.51923 16.0119 3.52463C15.9662 3.53582 15.9244 3.55937 15.8912 3.59269L13.9309 5.55601L12.27 7.22007L5.78999 13.7113L11.2939 16.7981C11.4486 16.8845 11.623 16.9298 11.8002 16.9298C11.9774 16.9298 12.1516 16.8845 12.3064 16.7981L17.9316 13.6704L16.3252 3.73051V3.73144C16.3173 3.68508 16.2968 3.64178 16.266 3.60627C16.2351 3.57076 16.1951 3.5444 16.1503 3.53007C16.1278 3.52283 16.1044 3.51848 16.0807 3.51751ZM18.0564 13.7546L17.9769 13.7612L18.0101 13.7805L18.0564 13.7546ZM6.9418 20.9458C6.88759 20.9448 6.83434 20.9601 6.78895 20.9898C6.74357 21.0194 6.70817 21.0621 6.68736 21.1121C6.66344 21.1697 6.6603 21.2338 6.67851 21.2934C6.69671 21.353 6.73512 21.4044 6.78711 21.4388C6.83911 21.4734 6.9015 21.4889 6.96366 21.4827C7.02581 21.4765 7.08389 21.4489 7.12799 21.4046C7.15339 21.38 7.17346 21.3504 7.18698 21.3177C7.20049 21.285 7.20715 21.2499 7.20655 21.2145C7.20655 21.0863 7.11543 20.9758 6.98905 20.9509C6.97347 20.9479 6.95767 20.9462 6.9418 20.9458ZM4.68018 20.9792V23.9353H5.06136V22.6678H6.27936V22.3129H5.06136V21.3424H6.41136V20.9792H4.68018ZM11.1409 20.9792V23.9353H11.5042V23.6546H11.5207C11.5888 23.7608 11.6842 23.8466 11.7969 23.9031C11.9255 23.9698 12.0688 24.0031 12.2136 23.9998C12.4751 24.0009 12.7011 23.8983 12.8916 23.6918C13.1773 23.382 13.1773 23.2294 13.1773 22.9238C13.1776 22.6183 13.0823 22.3623 12.8916 22.1559C12.7009 21.9494 12.4744 21.8462 12.2121 21.8462C12.0673 21.8437 11.9242 21.8778 11.796 21.9452C11.6837 22.0016 11.5887 22.087 11.5207 22.1927H11.5042L11.5207 21.9122V20.979L11.1409 20.9792ZM18.3259 21.8445C18.1906 21.8409 18.0562 21.8676 17.9326 21.9227C17.809 21.9778 17.6993 22.0598 17.6115 22.1627C17.4263 22.3717 17.3266 22.6428 17.3321 22.9221C17.3321 23.2333 17.428 23.4908 17.6197 23.6946C17.8116 23.8981 18.0608 23.9998 18.3673 23.9998C18.5881 23.9998 18.7743 23.9473 18.9261 23.8423C19.0708 23.7451 19.1844 23.6083 19.2534 23.4482L18.9141 23.307C18.8174 23.5383 18.6324 23.6539 18.3591 23.6539C18.1944 23.6554 18.0358 23.5916 17.9181 23.4765C17.7924 23.3575 17.7241 23.1961 17.7129 22.9924H19.3155L19.3196 22.9221C19.32 22.5947 19.2297 22.3333 19.0487 22.1378C18.8677 21.9423 18.6267 21.8445 18.3259 21.8445ZM16.3011 21.8454C16.0998 21.8403 15.902 21.8987 15.7359 22.0125C15.5772 22.124 15.4977 22.2692 15.4976 22.4481C15.4948 22.5197 15.509 22.5909 15.5393 22.6559C15.5695 22.7208 15.6148 22.7776 15.6714 22.8216C15.7795 22.9097 15.9052 22.9736 16.0401 23.0091L16.4497 23.1084C16.6347 23.1552 16.7272 23.2446 16.7272 23.3766C16.7277 23.4178 16.7174 23.4585 16.6975 23.4947C16.6776 23.5309 16.6487 23.5613 16.6136 23.583C16.5268 23.6381 16.4253 23.6654 16.3226 23.6614C16.0636 23.6614 15.8802 23.5348 15.7725 23.2815L15.4327 23.4218C15.5008 23.5863 15.6127 23.7291 15.7562 23.8346C15.9037 23.9446 16.0907 23.9996 16.3172 23.9996C16.5519 23.9998 16.7434 23.9399 16.8915 23.82C16.9622 23.7674 17.0196 23.6988 17.059 23.6199C17.0984 23.541 17.1187 23.4539 17.1182 23.3657C17.1188 23.2309 17.0696 23.1007 16.9802 22.9999C16.8889 22.8924 16.7481 22.8171 16.5576 22.7741L16.1559 22.6791C15.9764 22.6377 15.8867 22.5592 15.8867 22.4436C15.8867 22.4043 15.8975 22.3659 15.9179 22.3324C15.9383 22.2989 15.9675 22.2716 16.0024 22.2536C16.0893 22.2044 16.1882 22.18 16.2881 22.1833C16.5226 22.1833 16.6773 22.2728 16.7522 22.4516L17.0835 22.3166C17.0259 22.1691 16.9191 22.0459 16.7812 21.9679C16.635 21.8851 16.4691 21.8428 16.3011 21.8454ZM9.84093 21.8462C9.70566 21.8426 9.57131 21.8693 9.44771 21.9244C9.3241 21.9794 9.21437 22.0614 9.12655 22.1644C8.94137 22.3729 8.84132 22.6434 8.84624 22.9223C8.84649 23.2335 8.94249 23.4909 9.13424 23.6946C9.32586 23.8981 9.57499 23.9998 9.88161 23.9998C10.1025 23.9998 10.2889 23.9476 10.4409 23.8433C10.5856 23.746 10.6992 23.6091 10.7681 23.4489L10.4284 23.3087C10.3317 23.5399 10.1467 23.6556 9.87336 23.6556C9.7087 23.657 9.55019 23.593 9.43255 23.4778C9.3068 23.3589 9.23843 23.1977 9.22743 22.9941H10.8306L10.8347 22.9238C10.8349 22.5964 10.7446 22.3349 10.5636 22.1394C10.2921 21.8462 10.1417 21.8462 9.84093 21.8462ZM14.2924 21.8469C14.066 21.8469 13.8838 21.8985 13.7458 22.0016C13.6077 22.1049 13.5152 22.2171 13.4683 22.3382L13.8159 22.4869C13.8496 22.3955 13.9151 22.3192 14.0004 22.2722C14.0915 22.2193 14.1952 22.1922 14.3004 22.1936C14.438 22.1894 14.5721 22.2367 14.6766 22.3264C14.7272 22.3706 14.7672 22.4257 14.7938 22.4875C14.8203 22.5493 14.8327 22.6162 14.8299 22.6834V22.7409C14.6869 22.6584 14.5036 22.6172 14.2798 22.6172C14.0288 22.6172 13.8177 22.6798 13.6464 22.8051C13.4752 22.9301 13.3896 23.1027 13.3896 23.3229C13.3898 23.5267 13.4623 23.6904 13.6071 23.8142C13.7514 23.9379 13.9314 23.9998 14.1471 23.9998C14.4399 23.9998 14.6623 23.8848 14.8142 23.6548H14.8307V23.9355H15.1963V22.7126C15.1978 22.4365 15.1122 22.2232 14.9394 22.0727C14.7669 21.9222 14.5511 21.8469 14.2924 21.8469ZM8.55243 21.8629C8.42815 21.8661 8.3071 21.9032 8.20236 21.9701C8.09286 22.0295 8.00835 22.1263 7.96424 22.2428H7.94793V21.9124H7.58343V23.9355H7.96443L7.96386 22.8293C7.96386 22.653 8.01711 22.5105 8.12361 22.4018C8.17004 22.3506 8.2266 22.3096 8.2897 22.2814C8.3528 22.2532 8.42107 22.2385 8.49018 22.2381C8.55905 22.2356 8.62781 22.2455 8.69324 22.2671L8.83818 21.9124C8.7472 21.8769 8.65004 21.8602 8.55243 21.8629ZM6.7468 21.9124V23.9355H7.12799V21.9124H6.7468ZM12.1506 22.1916C12.2363 22.1917 12.321 22.2096 12.3995 22.244C12.478 22.2784 12.5486 22.3287 12.6067 22.3916C12.7337 22.5251 12.7972 22.702 12.7972 22.9223C12.7972 23.1423 12.7337 23.3191 12.6067 23.4529C12.5493 23.5165 12.479 23.5673 12.4005 23.6018C12.322 23.6363 12.237 23.6538 12.1513 23.6531V23.6548C12.0652 23.6558 11.9799 23.6385 11.9011 23.6041C11.8222 23.5696 11.7515 23.5188 11.6938 23.4549C11.5684 23.3228 11.5056 23.1453 11.5054 22.9224C11.5054 22.6994 11.5682 22.5219 11.6938 22.3899C11.7522 22.3272 11.8229 22.2772 11.9016 22.2431C11.9802 22.2089 12.0648 22.1914 12.1506 22.1916ZM9.83193 22.1936C10.0251 22.1915 10.1707 22.2428 10.2688 22.3474C10.3671 22.4518 10.4202 22.5618 10.4284 22.6774L9.25236 22.6808C9.28449 22.543 9.35906 22.4189 9.46555 22.3258C9.56739 22.2383 9.69766 22.1912 9.83193 22.1936ZM18.3176 22.1936C18.5106 22.1915 18.6562 22.2428 18.7545 22.3474C18.8526 22.4518 18.9058 22.5618 18.9141 22.6774L17.7381 22.6808C17.7702 22.543 17.8447 22.4189 17.9512 22.3258C18.053 22.2383 18.1834 22.1913 18.3176 22.1936ZM14.3469 22.9305C14.5626 22.9306 14.7242 22.9748 14.832 23.0631C14.8317 23.1421 14.8142 23.2202 14.7807 23.2918C14.7472 23.3634 14.6985 23.4268 14.6379 23.4776C14.5232 23.5894 14.3695 23.6523 14.2093 23.6531V23.6548C14.1051 23.6556 14.0032 23.6248 13.917 23.5663C13.8767 23.5418 13.8436 23.5071 13.8209 23.4658C13.7982 23.4245 13.7867 23.378 13.7876 23.3308C13.7884 23.2765 13.8015 23.223 13.8258 23.1744C13.8502 23.1258 13.8853 23.0834 13.9284 23.0503C14.0222 22.9704 14.1617 22.9304 14.3469 22.9305Z" fill="black"/>
</g>
<defs>
<clipPath id="clip0_1622_681">
<rect width="24" height="24" fill="white"/>
</clipPath>
</defs>
</svg>
