<svg width="132" height="40" viewBox="0 0 132 40" fill="none" xmlns="http://www.w3.org/2000/svg">
<path d="M31.5294 14.2117C31.5294 18.8818 28.7623 22.9082 24.7793 24.735C26.4612 23.3496 27.5322 21.248 27.5322 18.896C27.5322 14.7642 24.2259 11.4042 20.112 11.3204C20.0574 11.3167 20.0075 11.3167 19.9529 11.3167C19.8983 11.3167 19.8485 11.3167 19.7939 11.3204C18.2673 11.4033 17.0588 12.6663 17.0588 14.2108V28.6814C17.0588 33.4748 13.1699 37.3637 8.37646 37.3637V14.2117C8.37646 7.81925 13.5605 2.63525 19.9529 2.63525C26.3454 2.63525 31.5294 7.81925 31.5294 14.2117Z" fill="white"/>
<path d="M21.9992 16.2583C23.1294 15.1281 23.1294 13.2957 21.9992 12.1655C20.8689 11.0353 19.0365 11.0353 17.9063 12.1655C16.7761 13.2957 16.7761 15.1281 17.9063 16.2583C19.0365 17.3886 20.8689 17.3886 21.9992 16.2583Z" fill="white"/>
<path d="M52.1659 27L56.9859 12.4H62.2859L67.2859 27H63.8859L59.8459 14.66L60.8859 15.08H58.3059L59.3859 14.66L55.4459 27H52.1659ZM55.8259 23.38L56.8259 20.66H62.5459L63.5659 23.38H55.8259ZM73.3756 27.14C72.2689 27.14 71.3756 27.0067 70.6956 26.74C70.0156 26.46 69.5156 26 69.1956 25.36C68.8889 24.7067 68.7356 23.8267 68.7356 22.72V13.08H71.7156V22.84C71.7156 23.36 71.8489 23.76 72.1156 24.04C72.3956 24.3067 72.7889 24.44 73.2956 24.44H74.9156V27.14H73.3756ZM67.0756 18.38V16.04H74.9156V18.38H67.0756ZM81.6474 27.14C80.5408 27.14 79.6474 27.0067 78.9674 26.74C78.2874 26.46 77.7874 26 77.4674 25.36C77.1608 24.7067 77.0074 23.8267 77.0074 22.72V13.08H79.9874V22.84C79.9874 23.36 80.1208 23.76 80.3874 24.04C80.6674 24.3067 81.0608 24.44 81.5674 24.44H83.1874V27.14H81.6474ZM75.3474 18.38V16.04H83.1874V18.38H75.3474ZM91.5203 27V23.76H90.9803V20.24C90.9803 19.68 90.8469 19.26 90.5803 18.98C90.3136 18.7 89.8869 18.56 89.3003 18.56C89.0069 18.56 88.6203 18.5667 88.1403 18.58C87.6603 18.5933 87.1669 18.6133 86.6603 18.64C86.1536 18.6667 85.6936 18.6933 85.2803 18.72V16.02C85.5869 15.9933 85.9469 15.9667 86.3603 15.94C86.7736 15.9133 87.2003 15.8933 87.6403 15.88C88.0803 15.8667 88.4936 15.86 88.8803 15.86C90.0003 15.86 90.9403 16.02 91.7003 16.34C92.4736 16.66 93.0603 17.1467 93.4603 17.8C93.8603 18.44 94.0603 19.2667 94.0603 20.28V27H91.5203ZM88.0203 27.28C87.2336 27.28 86.5403 27.14 85.9403 26.86C85.3536 26.58 84.8936 26.18 84.5603 25.66C84.2269 25.1267 84.0603 24.4933 84.0603 23.76C84.0603 22.96 84.2669 22.3067 84.6803 21.8C85.0936 21.28 85.6736 20.9 86.4203 20.66C87.1669 20.4067 88.0269 20.28 89.0003 20.28H91.3403V22.06H88.9803C88.4203 22.06 87.9869 22.2 87.6803 22.48C87.3869 22.7467 87.2403 23.1133 87.2403 23.58C87.2403 24.02 87.3869 24.38 87.6803 24.66C87.9869 24.9267 88.4203 25.06 88.9803 25.06C89.3403 25.06 89.6603 25 89.9403 24.88C90.2336 24.7467 90.4736 24.5267 90.6603 24.22C90.8469 23.9133 90.9536 23.4867 90.9803 22.94L91.7403 23.74C91.6736 24.5 91.4869 25.14 91.1803 25.66C90.8869 26.18 90.4736 26.58 89.9403 26.86C89.4203 27.14 88.7803 27.28 88.0203 27.28ZM96.5153 27V12.4H99.7353V27H96.5153ZM95.2153 14.76V12.4H99.7353V14.76H95.2153ZM102.424 27V12.4H105.644V27H102.424ZM101.124 14.76V12.4H105.644V14.76H101.124ZM114.812 27V23.76H114.272V20.24C114.272 19.68 114.139 19.26 113.872 18.98C113.606 18.7 113.179 18.56 112.592 18.56C112.299 18.56 111.912 18.5667 111.432 18.58C110.952 18.5933 110.459 18.6133 109.952 18.64C109.446 18.6667 108.986 18.6933 108.572 18.72V16.02C108.879 15.9933 109.239 15.9667 109.652 15.94C110.066 15.9133 110.492 15.8933 110.932 15.88C111.372 15.8667 111.786 15.86 112.172 15.86C113.292 15.86 114.232 16.02 114.992 16.34C115.766 16.66 116.352 17.1467 116.752 17.8C117.152 18.44 117.352 19.2667 117.352 20.28V27H114.812ZM111.312 27.28C110.526 27.28 109.832 27.14 109.232 26.86C108.646 26.58 108.186 26.18 107.852 25.66C107.519 25.1267 107.352 24.4933 107.352 23.76C107.352 22.96 107.559 22.3067 107.972 21.8C108.386 21.28 108.966 20.9 109.712 20.66C110.459 20.4067 111.319 20.28 112.292 20.28H114.632V22.06H112.272C111.712 22.06 111.279 22.2 110.972 22.48C110.679 22.7467 110.532 23.1133 110.532 23.58C110.532 24.02 110.679 24.38 110.972 24.66C111.279 24.9267 111.712 25.06 112.272 25.06C112.632 25.06 112.952 25 113.232 24.88C113.526 24.7467 113.766 24.5267 113.952 24.22C114.139 23.9133 114.246 23.4867 114.272 22.94L115.032 23.74C114.966 24.5 114.779 25.14 114.472 25.66C114.179 26.18 113.766 26.58 113.232 26.86C112.712 27.14 112.072 27.28 111.312 27.28ZM119.667 27V12.4H122.867V20.82H122.387C122.387 19.7133 122.527 18.78 122.807 18.02C123.087 17.26 123.501 16.6867 124.047 16.3C124.594 15.9 125.281 15.7 126.107 15.7H126.247C127.461 15.7 128.387 16.1333 129.027 17C129.667 17.8533 129.987 19.1067 129.987 20.76V27H126.787V20.56C126.787 19.96 126.607 19.48 126.247 19.12C125.901 18.7467 125.441 18.56 124.867 18.56C124.267 18.56 123.781 18.7533 123.407 19.14C123.047 19.5267 122.867 20.04 122.867 20.68V27H119.667Z" fill="white"/>
</svg>
