<svg width="24" height="24" viewBox="0 0 24 24" fill="none" xmlns="http://www.w3.org/2000/svg">
<g clip-path="url(#clip0_1622_679)">
<path fill-rule="evenodd" clip-rule="evenodd" d="M15.5256 6.41812C15.0373 4.89787 14.2541 3.55237 13.1505 2.39455C12.8715 2.10168 12.5614 1.83337 12.3668 1.46905C12.2438 1.23843 12.1266 1.00462 12.0068 0.772492L11.9306 0.581055L11.9094 0.65643C11.8995 1.03518 11.685 1.29187 11.418 1.53168C11.1173 1.8013 10.8375 2.09418 10.5488 2.37712L9.66075 3.54505L8.94282 4.86543L8.46263 6.16199L8.44819 6.18205C8.184 7.04999 8.05369 7.94249 7.98975 8.84362C7.96557 9.18243 7.99332 9.52593 8.01225 9.86643C8.03944 10.3532 8.124 10.8315 8.25075 11.3027C8.71144 13.0138 9.6465 14.433 10.9251 15.639C11.1624 15.8631 11.4191 16.0669 11.6668 16.2799L11.7765 16.6564L11.8785 17.2406L11.9273 17.8506C11.9267 17.9743 11.9216 18.0986 11.9289 18.222C11.931 18.2537 11.9723 18.2829 11.9955 18.3133L12.2025 18.3861L12.4179 18.4699L12.381 17.9278L12.3793 17.3938L12.4538 16.5804L12.5078 16.4034L12.6624 16.1295C12.8533 15.9761 13.0579 15.8366 13.2317 15.6658C13.5461 15.357 13.86 15.0439 14.1414 14.7054C14.5076 14.2667 14.8203 13.7861 15.0731 13.2737C15.2417 12.93 15.4007 12.5794 15.5321 12.2203C15.648 11.9038 15.7198 11.571 15.8111 11.2453L15.8351 11.175C16.0236 10.296 16.0553 9.40799 15.9861 8.51437C15.9304 7.79418 15.7611 7.09912 15.5256 6.41812ZM11.7943 15.8447C11.8232 15.7001 11.859 15.5563 11.8851 15.4112C11.859 15.5563 11.8234 15.7001 11.7943 15.8447ZM19.9639 19.3057C19.809 19.0089 19.5818 18.7836 19.2814 18.6356C19.0298 18.5119 18.7592 18.4575 18.4809 18.4496C18.2724 18.4436 18.0632 18.4543 17.8543 18.4569C17.6689 18.4592 17.4833 18.4624 17.2978 18.4607C17.0798 18.4584 16.8617 18.4519 16.6436 18.4457C16.6074 18.4446 16.5818 18.4519 16.5649 18.4886C16.5384 18.5458 16.5071 18.6009 16.4747 18.6636L16.5111 18.6752C16.6193 18.6943 16.728 18.7106 16.8356 18.7322C16.974 18.7597 17.0363 18.8392 17.0426 18.9559C17.0518 19.1221 17.0559 19.2885 17.0552 19.455C17.0524 20.1139 17.0477 20.7727 17.0428 21.4314C17.0424 21.4749 17.0417 21.5203 17.0299 21.5612C17.0162 21.6084 17.0014 21.6696 16.9661 21.6928C16.9027 21.7336 16.8315 21.7607 16.7571 21.7725C16.6519 21.7897 16.6343 21.7944 16.6014 21.8979L16.5872 21.9497C16.5714 22.0061 16.5799 22.0172 16.6388 22.0177C16.9766 22.0215 17.3143 22.0288 17.652 22.0277C17.9601 22.0266 18.2681 22.0453 18.5751 21.9874C18.8651 21.9328 19.1359 21.8372 19.383 21.6754C19.7036 21.4652 19.9343 21.1843 20.0559 20.8177C20.1542 20.5217 20.1761 20.2196 20.1428 19.9101C20.1221 19.6991 20.0613 19.494 19.9639 19.3057ZM19.3719 21.1172C19.1912 21.4536 18.9216 21.6782 18.5363 21.7374C18.2949 21.7744 18.0533 21.7637 17.8232 21.6724C17.6775 21.6146 17.6233 21.4888 17.6188 21.3401C17.6147 21.1944 17.6126 21.0486 17.6126 20.9029C17.6119 20.3902 17.6119 19.8777 17.6126 19.3652C17.613 19.2037 17.6158 19.0419 17.6184 18.8803C17.6203 18.7667 17.6441 18.7286 17.7549 18.7194C18.2417 18.6786 18.7061 18.7311 19.0918 19.0736C19.3303 19.2855 19.4661 19.5557 19.5225 19.866C19.5459 19.9954 19.5531 20.1277 19.5677 20.259C19.5559 20.5586 19.5154 20.8502 19.3719 21.1172ZM23.4574 20.562C23.3614 20.3284 23.1795 20.1819 22.9509 20.0882C22.8729 20.0561 22.7925 20.0297 22.7083 19.9986L22.7378 19.9798C22.8287 19.9215 22.9299 19.8744 23.0083 19.8026C23.1988 19.6281 23.2779 19.4085 23.2408 19.1477C23.2056 18.8996 23.0818 18.7176 22.8608 18.5994C22.6601 18.4926 22.4438 18.4536 22.2199 18.4537C21.8325 18.4541 21.4449 18.4599 21.0576 18.4607C20.9241 18.4609 20.7906 18.4509 20.6571 18.4491C20.6312 18.4487 20.5928 18.4552 20.5817 18.4725C20.5511 18.5194 20.5309 18.5734 20.5091 18.6255C20.4966 18.6559 20.5089 18.6726 20.5436 18.6771C20.6368 18.6898 20.7298 18.7057 20.8232 18.7196C20.9522 18.7389 21.0146 18.8061 21.0225 18.936L21.0242 19.0131C21.0244 19.4171 21.0257 19.8212 21.024 20.2252C21.0216 20.6288 21.0178 21.0323 21.0126 21.4357C21.012 21.4866 21.0051 21.5376 20.9978 21.588C20.9867 21.6641 20.946 21.7166 20.868 21.7331L20.6473 21.7766C20.6213 21.7819 20.5836 21.7811 20.5729 21.7972C20.5324 21.8578 20.4998 21.924 20.5043 22.0039L20.5269 22.0101L21.2681 22.0282L21.4168 22.0277C21.6733 22.0247 21.9302 22.0297 22.1863 22.0166C22.4636 22.0027 22.7241 21.9204 22.9648 21.7789C23.2211 21.6279 23.4184 21.429 23.4885 21.1297C23.5335 20.9387 23.5337 20.7465 23.4574 20.562ZM21.5743 18.8406C21.5754 18.7594 21.6113 18.7241 21.6919 18.7221C21.8904 18.7166 22.0877 18.7177 22.2793 18.7862C22.5272 18.8747 22.6796 19.0884 22.6768 19.3496C22.6755 19.4499 22.677 19.5493 22.6401 19.6457C22.5671 19.8354 22.4273 19.9356 22.2289 19.9551C22.1254 19.9656 22.0209 19.9667 21.9287 19.9716L21.6208 19.9581C21.5799 19.9566 21.5621 19.9386 21.5623 19.8966L21.5743 18.8406ZM22.8504 21.3707C22.7513 21.5865 22.5705 21.6999 22.3442 21.7393C22.1638 21.7704 21.9789 21.7623 21.8019 21.7155C21.6696 21.6816 21.6156 21.5752 21.5891 21.4573C21.5713 21.3784 21.5743 21.2844 21.5728 21.2023C21.5704 21.0756 21.5723 20.8125 21.5723 20.8125H21.5696C21.5696 20.625 21.5702 20.4626 21.5691 20.2828C21.5689 20.244 21.5754 20.2247 21.6229 20.2262C21.7913 20.2312 21.9602 20.2341 22.1286 20.2406C22.2791 20.2464 22.4201 20.2911 22.5527 20.3625C22.7544 20.4712 22.8759 20.6377 22.9093 20.8665C22.9348 21.0399 22.9239 21.2106 22.8504 21.3707ZM4.36538 21.5728L4.36894 20.5534C4.3695 20.4 4.35 20.2496 4.29975 20.1041C4.16119 19.7034 3.77907 19.521 3.38119 19.6648C3.20025 19.7302 3.03807 19.8294 2.88319 19.9419C2.793 20.0076 2.793 20.0076 2.72775 19.914C2.54307 19.6492 2.27925 19.5587 1.97213 19.6564C1.77357 19.7194 1.59994 19.8272 1.4355 19.9524C1.42013 19.9641 1.38919 19.977 1.38 19.9701C1.36463 19.9586 1.35394 19.9314 1.35432 19.911L1.36557 19.7299C1.3665 19.6918 1.35919 19.6536 1.35544 19.6136C1.28119 19.6393 1.22194 19.665 1.15988 19.68C0.968066 19.7269 0.774941 19.77 0.582003 19.8141C0.535316 19.8247 0.486003 19.8388 0.481503 19.8924C0.476816 19.9451 0.527628 19.9539 0.567003 19.9697C0.649878 20.0033 0.732253 20.0382 0.814128 20.0745C0.882941 20.1049 0.908628 20.1598 0.908253 20.2337C0.906941 20.5496 0.909003 20.8652 0.907128 21.1811C0.906378 21.3096 0.900378 21.4378 0.894566 21.5662C0.889316 21.6801 0.850503 21.7277 0.740253 21.7564C0.681753 21.7717 0.622316 21.7821 0.563441 21.7959C0.550503 21.7989 0.528378 21.8072 0.528191 21.8136C0.525753 21.8692 0.522753 21.9262 0.532128 21.9804C0.534003 21.9902 0.592878 21.9902 0.625503 21.9939L0.647441 21.9926C0.874691 21.989 1.102 21.9859 1.32938 21.9832C1.44994 21.9819 1.57032 21.9831 1.70119 21.9831L1.71525 21.8012C1.64025 21.7875 1.57332 21.7772 1.50732 21.7627C1.40438 21.7402 1.3605 21.6857 1.35788 21.5818L1.356 21.4331C1.35488 21.0474 1.35338 20.6619 1.35338 20.2762C1.35338 20.2202 1.37663 20.1757 1.42594 20.1422C1.53038 20.0717 1.64063 20.0156 1.76269 19.9843C2.01994 19.9185 2.24307 20.01 2.34207 20.2288C2.37338 20.2978 2.39794 20.3741 2.40488 20.4491C2.44125 20.8357 2.4255 21.2227 2.40357 21.6094C2.39888 21.6928 2.35969 21.7348 2.27738 21.7552L2.08388 21.7961C2.06832 21.8001 2.04563 21.7896 2.0445 21.8025C2.04019 21.8559 2.04263 21.9379 2.04263 21.9379H2.08875L2.67788 21.9572C2.83932 21.9568 3.00094 21.9763 3.16219 21.9804C3.19107 21.981 3.21675 21.9853 3.21844 21.9519C3.22014 21.9001 3.21945 21.8482 3.21638 21.7965L3.18563 21.7911L3.01969 21.7537C2.90775 21.7273 2.86913 21.6847 2.86875 21.5715C2.86744 21.2923 2.87119 21.0133 2.86875 20.7343C2.86734 20.5747 2.8614 20.4152 2.85094 20.256C2.84813 20.2136 2.85469 20.1859 2.88844 20.1621C2.98624 20.0905 3.0963 20.0374 3.21319 20.0055C3.576 19.9099 3.873 20.1088 3.89175 20.4829C3.91013 20.8436 3.90244 21.2057 3.89963 21.5672C3.89869 21.693 3.85707 21.7311 3.73313 21.7648L3.69038 21.7759C3.56344 21.8062 3.56457 21.8062 3.57207 21.9411C3.5745 21.9832 3.58613 21.9941 3.63113 21.993C3.88969 21.9872 4.14825 21.9857 4.40682 21.9834C4.51257 21.9825 4.61832 21.9834 4.73344 21.9834L4.75688 21.8079C4.65582 21.7811 4.56263 21.7612 4.47263 21.7318C4.39313 21.7048 4.365 21.6568 4.36538 21.5728ZM13.2696 20.0276C13.3761 19.9288 13.3768 19.7983 13.347 19.6534C13.2626 19.7417 13.1681 19.7824 13.0603 19.7901C12.9158 19.8004 12.7738 19.7878 12.6392 19.7302C12.2751 19.5739 11.9166 19.5849 11.5592 19.7565C11.2586 19.9005 11.0738 20.1249 11.0552 20.4652C11.0434 20.6833 11.0843 20.8897 11.2298 21.0632C11.3169 21.1671 11.4289 21.2344 11.5551 21.2809C11.6094 21.3009 11.6136 21.3268 11.568 21.3615C11.5344 21.3869 11.4995 21.4107 11.4636 21.4327C11.3874 21.4806 11.3108 21.5277 11.2337 21.5741C11.1885 21.6015 11.1731 21.6364 11.1879 21.6898C11.2313 21.8469 11.3428 21.9377 11.4823 22.0039L11.5331 22.0393L11.4887 22.0837C11.352 22.1946 11.2099 22.2992 11.079 22.4167C10.9691 22.5156 10.9337 22.6479 10.9669 22.794C11.0338 23.0856 11.2271 23.2659 11.5014 23.3488C11.9809 23.4939 12.4311 23.4107 12.8415 23.1266C13.0849 22.9581 13.2594 22.7387 13.3125 22.4368C13.3719 22.0976 13.1835 21.8032 12.8462 21.7425C12.6231 21.702 12.3947 21.6904 12.1689 21.6645C12.0636 21.6525 11.9567 21.6454 11.8541 21.6212C11.7669 21.6006 11.7236 21.5295 11.7317 21.4601C11.7398 21.3919 11.8123 21.3283 11.8954 21.3217C12.0626 21.3082 12.2265 21.2822 12.3806 21.2117C12.789 21.0249 12.9786 20.6979 12.9311 20.2577C12.9249 20.1984 12.9114 20.1399 12.8993 20.0709C13.0299 20.0929 13.1636 20.1261 13.2696 20.0276ZM12.0304 22.0933C12.1965 22.0982 12.3855 22.1085 12.5681 22.1619C12.7288 22.2088 12.861 22.2909 12.9 22.4704C12.9471 22.6871 12.8428 22.9027 12.633 23.0186C12.4365 23.127 12.2231 23.136 12.0068 23.1137C11.8215 23.0946 11.6548 23.0304 11.5213 22.8936C11.3454 22.7134 11.3445 22.464 11.5206 22.2844C11.6779 22.1239 11.7621 22.0907 12.0304 22.0933ZM12.4461 20.7879C12.3493 21.0975 12.0677 21.1402 11.847 21.0412C11.6589 20.9571 11.577 20.7913 11.5341 20.6021C11.5174 20.5294 11.5134 20.4538 11.5037 20.3794C11.5076 20.2727 11.5253 20.1703 11.5712 20.0743C11.712 19.7786 12.0579 19.7962 12.2494 19.9301C12.3315 19.9875 12.3887 20.0655 12.4245 20.1579C12.5042 20.3591 12.5118 20.5817 12.4461 20.7879ZM10.6892 21.7747C10.6222 21.7645 10.556 21.7497 10.491 21.7305C10.377 21.6956 10.3631 21.6742 10.3618 21.5537C10.3584 21.2177 10.3562 20.8817 10.3524 20.5459C10.3506 20.3947 10.3326 20.2457 10.2863 20.1013C10.1644 19.7207 9.79107 19.5163 9.41757 19.6286C9.21057 19.6911 9.03282 19.8071 8.86725 19.9434L8.80688 19.9897L8.80707 19.9277C8.811 19.8562 8.81869 19.7848 8.81813 19.7134C8.81775 19.6761 8.8035 19.6386 8.79657 19.6057C8.65538 19.6483 8.52882 19.6911 8.39963 19.7237C8.27007 19.7563 8.13788 19.7784 8.00682 19.8051C7.94175 19.8182 7.89394 19.8576 7.89507 19.9024C7.89675 19.9656 7.94907 19.9777 7.99482 19.9967C8.07769 20.0306 8.16038 20.0649 8.24232 20.1013C8.30082 20.1274 8.32463 20.1757 8.32407 20.2386C8.31994 20.6752 8.31732 21.1121 8.31094 21.549C8.30907 21.687 8.27419 21.7234 8.13844 21.7537L8.07919 21.7656C7.95357 21.7871 7.95 21.7922 7.95863 21.9247L7.95938 21.9467C7.95788 21.9977 7.98019 22.0142 8.03269 22.0136C8.36644 22.0095 8.70025 22.008 9.03413 22.0091C9.17719 22.0097 9.19257 21.9984 9.18957 21.8514L9.18282 21.7882C9.10107 21.7746 9.02288 21.7646 8.94638 21.7477C8.86632 21.7299 8.83763 21.6971 8.83013 21.6157C8.82319 21.5413 8.82094 21.4657 8.82019 21.3907C8.81644 21.0474 8.81363 20.7041 8.81175 20.361C8.81138 20.2746 8.82732 20.1943 8.90682 20.1386C9.02383 20.055 9.16177 20.0055 9.30525 19.9957C9.603 19.9753 9.82932 20.1517 9.84544 20.4486C9.86532 20.8147 9.85932 21.1822 9.864 21.5492C9.86438 21.5766 9.8595 21.6041 9.85575 21.6313C9.84863 21.6849 9.82238 21.7252 9.768 21.7391C9.71494 21.753 9.66113 21.7654 9.60694 21.7736C9.52613 21.7856 9.52444 21.7851 9.51825 21.8666L9.52032 21.9216C9.52988 22.0164 9.53007 22.0136 9.62607 22.0127C9.94894 22.0099 10.2717 22.0086 10.5943 22.0087C10.7293 22.0091 10.7389 22.0027 10.74 21.8636L10.7396 21.8306C10.7417 21.795 10.7258 21.7806 10.6892 21.7747ZM15.1989 19.6517C14.8605 19.569 14.5395 19.6305 14.2346 19.7882C13.9384 19.9414 13.7404 20.1782 13.665 20.5052C13.5889 20.8357 13.6253 21.1582 13.7713 21.4652C13.8664 21.6645 14.0126 21.8186 14.2118 21.9187C14.6779 22.1535 15.2481 22.047 15.6137 21.7329C15.9023 21.4852 16.0082 21.1554 16.0146 20.7472C16.0106 20.7064 16.0067 20.6276 15.9958 20.5496C15.9345 20.1052 15.6268 19.7563 15.1989 19.6517ZM15.4553 21.3682C15.3654 21.7219 15.0596 21.879 14.7146 21.7575C14.5386 21.6956 14.4069 21.5773 14.3184 21.4174C14.1148 21.0499 14.0756 20.6591 14.1915 20.2582C14.2688 19.9912 14.4885 19.8452 14.7499 19.8636C14.9835 19.8799 15.1631 19.992 15.2949 20.1821C15.4339 20.3827 15.4875 20.6109 15.5018 20.8506C15.5042 20.889 15.5021 20.9274 15.5021 20.9661L15.5186 20.9679C15.498 21.1016 15.4883 21.2379 15.4553 21.3682ZM6.687 19.6459C6.33094 19.5645 5.99738 19.6449 5.68838 19.8259C5.42119 19.9822 5.2485 20.2159 5.18232 20.5211C5.12025 20.8063 5.14557 21.0866 5.24663 21.3598C5.30813 21.5263 5.40132 21.6727 5.538 21.7869C5.82582 22.0271 6.16219 22.0879 6.52013 22.0209C6.82313 21.9641 7.08938 21.8295 7.28288 21.5777C7.464 21.3422 7.533 21.0718 7.54013 20.7787C7.52944 20.6859 7.52682 20.5914 7.50713 20.5009C7.40925 20.0488 7.14488 19.7503 6.687 19.6459ZM6.97744 21.3671C6.89063 21.7189 6.57994 21.8799 6.23738 21.7584C6.01744 21.6802 5.87419 21.5192 5.78363 21.3127C5.6385 20.9811 5.60888 20.6359 5.70282 20.286C5.77482 20.0184 5.99175 19.8214 6.32382 19.8686C6.52763 19.8975 6.68663 20.0016 6.80513 20.1671C6.96525 20.3904 7.01794 20.6462 7.02525 20.9149V20.9698L7.03875 20.9719C7.01907 21.1039 7.00932 21.2381 6.97744 21.3671Z" fill="black"/>
</g>
<defs>
<clipPath id="clip0_1622_679">
<rect width="24" height="24" fill="white"/>
</clipPath>
</defs>
</svg>
