<svg width="24" height="24" viewBox="0 0 24 24" fill="none" xmlns="http://www.w3.org/2000/svg">
<g clip-path="url(#clip0_1622_694)">
<path d="M20.229 15.793C20.3293 15.7336 20.4132 15.6501 20.473 15.55C20.5303 15.4483 20.5612 15.3338 20.563 15.217L20.575 11.359C20.5768 11.2422 20.6077 11.1278 20.665 11.026C20.7251 10.9258 20.8093 10.8423 20.91 10.783L23 9.58001C23.1019 9.5234 23.2164 9.49315 23.333 9.49201C23.4498 9.49377 23.5642 9.52471 23.666 9.58201C23.7663 9.64143 23.8502 9.72496 23.91 9.82501C23.967 9.92686 23.9976 10.0413 23.999 10.158V17.172C23.9986 17.2892 23.9675 17.4043 23.9087 17.5057C23.8499 17.6072 23.7655 17.6914 23.664 17.75L15.771 22.284C15.6701 22.3413 15.556 22.3715 15.44 22.3715C15.324 22.3715 15.2099 22.3413 15.109 22.284L8.915 18.742C8.81302 18.6837 8.72819 18.5995 8.669 18.498C8.61011 18.3962 8.57907 18.2806 8.579 18.163V14.626C8.57967 14.6213 8.58233 14.62 8.587 14.622C8.59367 14.624 8.59633 14.6223 8.595 14.617V14.613C8.595 14.6103 8.59633 14.608 8.599 14.606L13.701 11.676C13.705 11.673 13.703 11.666 13.698 11.666L13.694 11.664L13.693 11.66L13.703 8.19301C13.7032 8.07564 13.6725 7.96028 13.614 7.85849C13.5556 7.7567 13.4714 7.67205 13.37 7.61301C13.2685 7.55476 13.1535 7.52411 13.0365 7.52411C12.9195 7.52411 12.8045 7.55476 12.703 7.61301L8.912 9.79901C8.81074 9.85689 8.69613 9.88734 8.5795 9.88734C8.46287 9.88734 8.34826 9.85689 8.247 9.79901L4.443 7.60901C4.34169 7.55087 4.22689 7.52036 4.11008 7.52052C3.99327 7.52068 3.87855 7.55151 3.7774 7.60993C3.67625 7.66836 3.59222 7.75232 3.53371 7.85342C3.4752 7.95451 3.44426 8.06921 3.444 8.18601V14.453C3.44374 14.5698 3.41297 14.6845 3.35473 14.7857C3.2965 14.8869 3.21282 14.9711 3.112 15.03C3.01054 15.0872 2.89643 15.1181 2.78 15.12C2.6634 15.1189 2.54894 15.0886 2.447 15.032L0.336 13.825C0.234024 13.7667 0.149188 13.6825 0.0900003 13.581C0.0309428 13.4789 -0.000103511 13.363 2.59284e-07 13.245L0.0190003 2.29201C0.0193629 2.17535 0.0503181 2.06082 0.108776 1.95986C0.167234 1.8589 0.25115 1.77504 0.352148 1.71665C0.453146 1.65826 0.567693 1.62738 0.684356 1.62709C0.801018 1.6268 0.915716 1.65712 1.017 1.71501L8.247 5.86801C8.34826 5.9259 8.46287 5.95634 8.5795 5.95634C8.69613 5.95634 8.81074 5.9259 8.912 5.86801L16.14 1.71501C16.2419 1.6584 16.3564 1.62815 16.473 1.62701C16.5898 1.62877 16.7042 1.65971 16.806 1.71701C16.9064 1.77671 16.9903 1.86059 17.05 1.96101C17.1066 2.06295 17.1369 2.17742 17.138 2.29401V13.25C17.138 13.367 17.108 13.482 17.049 13.584C16.9901 13.6854 16.9056 13.7695 16.804 13.828L13.019 16.008C12.9173 16.0668 12.8328 16.1513 12.774 16.253C12.7156 16.3546 12.6849 16.4698 12.685 16.587C12.6852 16.7043 12.7163 16.8195 12.775 16.921C12.8345 17.0226 12.9197 17.1068 13.022 17.165L15.11 18.354C15.2111 18.4098 15.3245 18.4397 15.44 18.441C15.5563 18.4394 15.6705 18.4088 15.772 18.352L20.229 15.793ZM20.667 5.96501C20.6671 6.08265 20.6981 6.19818 20.757 6.30001C20.8167 6.40177 20.9023 6.48594 21.005 6.54401C21.1076 6.60161 21.2235 6.63119 21.3411 6.62978C21.4587 6.62838 21.5739 6.59604 21.675 6.53601L23.676 5.33601C23.7737 5.27569 23.8551 5.19223 23.913 5.09301C23.9686 4.99217 23.9985 4.87917 24 4.76401V2.32001C23.9996 2.20229 23.9682 2.08675 23.909 1.98501C23.8492 1.88354 23.7638 1.7996 23.6613 1.74167C23.5587 1.68373 23.4428 1.65384 23.325 1.65501C23.2073 1.65648 23.0921 1.6889 22.991 1.74901L20.991 2.94901C20.8929 3.00921 20.8111 3.09268 20.753 3.19201C20.6977 3.29294 20.6682 3.40595 20.667 3.52101V5.96501Z" fill="black"/>
</g>
<defs>
<clipPath id="clip0_1622_694">
<rect width="24" height="24" fill="white"/>
</clipPath>
</defs>
</svg>
