<svg width="24" height="24" viewBox="0 0 24 24" fill="none" xmlns="http://www.w3.org/2000/svg">
<path d="M0 9.58087V14.4112H0.829125V10.6132L3.88687 14.4131H9.0795V13.6419H5.72869V12.3667H8.42306V11.5956H5.72869V10.3541H9.07931V9.58237H4.89937V10.3541H4.89975V14.3775L1.03631 9.58087H0ZM15.9544 9.58275V10.3543H17.6475V14.4137H18.4763V10.3543H20.1351V9.58256H15.9544V9.58275ZM10.0815 9.58481L13.9684 14.4156H15.0564L13.113 12.0019L15.0536 9.58856L13.968 9.59043L12.5694 11.3269L11.1669 9.585H10.0813L10.0815 9.58481ZM23.2361 12.3219C23.0934 12.3219 22.9652 12.3459 22.8516 12.3958C22.7386 12.4452 22.6494 12.5144 22.5842 12.6036C22.5186 12.6929 22.4858 12.7969 22.4858 12.9156C22.4855 13.0598 22.5343 13.1752 22.632 13.2619C22.7291 13.3489 22.8619 13.4136 23.0303 13.4561L23.2628 13.5146C23.3284 13.5305 23.3927 13.5515 23.4551 13.5772C23.5036 13.5963 23.5473 13.6259 23.5832 13.6637C23.6143 13.7 23.6309 13.7466 23.6297 13.7944C23.6302 13.8492 23.6114 13.9025 23.5766 13.9449C23.5389 13.9905 23.4897 14.0251 23.4341 14.0452C23.3662 14.0704 23.2942 14.0826 23.2219 14.0812C23.1507 14.0824 23.0798 14.0708 23.0126 14.0471C22.9541 14.0261 22.9021 13.9901 22.8619 13.9427C22.8222 13.8928 22.7991 13.8318 22.7959 13.7681H22.4319C22.4369 13.9015 22.4723 14.0147 22.5381 14.1079C22.6367 14.2476 22.6948 14.2716 22.8118 14.3197C22.9281 14.3685 23.0662 14.3929 23.2247 14.3929C23.3887 14.3926 23.5282 14.3676 23.6434 14.3179C23.759 14.2672 23.8474 14.1974 23.9085 14.1082C23.9698 14.0184 24 13.9155 24 13.7974C23.9999 13.7099 23.9833 13.6338 23.9501 13.5692C23.9175 13.5048 23.8715 13.448 23.8151 13.4029C23.7566 13.356 23.6917 13.3176 23.6224 13.2891C23.5503 13.2584 23.4756 13.2342 23.3992 13.2169L23.208 13.17C23.1657 13.1599 23.124 13.1477 23.0829 13.1334C23.0436 13.1201 23.0061 13.1022 22.971 13.08C22.9384 13.0605 22.9108 13.0337 22.8904 13.0016C22.87 12.9691 22.8597 12.9312 22.8608 12.8929C22.8608 12.8444 22.8764 12.7973 22.9054 12.7584C22.9346 12.7191 22.9776 12.6879 23.0325 12.6647C23.0957 12.6405 23.1629 12.6288 23.2305 12.6302C23.3403 12.6301 23.4296 12.654 23.4986 12.702C23.532 12.7244 23.5598 12.7542 23.58 12.7889C23.6003 12.8237 23.6124 12.8625 23.6154 12.9026H23.9717C23.9714 12.7947 23.9378 12.6895 23.8755 12.6013C23.813 12.5138 23.7269 12.4453 23.6173 12.3958C23.5079 12.3463 23.3809 12.3217 23.2361 12.3219ZM21.7365 12.3489V13.7646C21.7359 13.8354 21.7249 13.8951 21.7035 13.9434C21.6842 13.989 21.651 14.0274 21.6086 14.0529C21.5675 14.0779 21.5173 14.0904 21.4581 14.0904C21.4038 14.0904 21.3556 14.0798 21.3135 14.0586C21.2728 14.0386 21.2388 14.0073 21.2156 13.9684C21.1913 13.9255 21.1787 13.877 21.1791 13.8277H20.811C20.8107 13.9517 20.8387 14.0552 20.8948 14.1382C20.9508 14.2215 21.0296 14.2867 21.1219 14.3261C21.2237 14.3698 21.3336 14.3915 21.4444 14.3899C21.5753 14.3899 21.6899 14.3649 21.7884 14.3149C21.8849 14.267 21.9654 14.1921 22.0202 14.0994C22.0752 14.0061 22.1032 13.8944 22.1042 13.7644V12.3489H21.7365ZM11.7368 12.36L10.0785 14.4191H11.1669L12.2801 13.0354L11.7368 12.36ZM20.3214 13.9534C20.2607 13.9534 20.2088 13.9744 20.1658 14.0164C20.145 14.0356 20.1285 14.059 20.1173 14.0851C20.1062 14.1112 20.1008 14.1393 20.1013 14.1677C20.1006 14.1964 20.106 14.2249 20.1171 14.2513C20.1282 14.2777 20.1448 14.3015 20.1658 14.3211C20.2088 14.3632 20.2607 14.3842 20.3214 14.3841C20.3593 14.3844 20.3966 14.3743 20.4291 14.3548C20.462 14.336 20.4896 14.3092 20.5093 14.2768C20.5297 14.2441 20.5405 14.2063 20.5404 14.1677C20.5404 14.1392 20.5345 14.1111 20.5231 14.0851C20.5116 14.0591 20.495 14.0357 20.4741 14.0164C20.4541 13.9962 20.4304 13.9802 20.4041 13.9694C20.3779 13.9586 20.3498 13.9531 20.3214 13.9534Z" fill="black"/>
</svg>
