<svg width="24" height="24" viewBox="0 0 24 24" fill="none" xmlns="http://www.w3.org/2000/svg">
<path d="M15.975 4.5C15.9153 4.5 15.8581 4.52371 15.8159 4.5659C15.7737 4.6081 15.75 4.66533 15.75 4.725V8.84775L14.8155 8.3025C14.7578 8.26846 14.692 8.25051 14.625 8.25051C14.558 8.25051 14.4922 8.26846 14.4345 8.3025L12.189 9.612C12.1314 9.64491 12.0835 9.69252 12.0503 9.74997C12.0171 9.80742 11.9998 9.87265 12 9.939V12.561C12 12.696 12.072 12.8205 12.189 12.888L14.4345 14.1975C14.4922 14.2315 14.558 14.2495 14.625 14.2495C14.692 14.2495 14.7578 14.2315 14.8155 14.1975L17.061 12.888C17.1186 12.8551 17.1665 12.8075 17.1997 12.75C17.2329 12.6926 17.2502 12.6274 17.25 12.561V5.4225C17.2499 5.35708 17.2327 5.29282 17.2 5.23611C17.1674 5.17941 17.1205 5.13222 17.064 5.09925L16.0868 4.53075C16.053 4.51104 16.0148 4.50045 15.9758 4.5H15.975ZM8.625 8.2515C8.55809 8.2512 8.49231 8.26881 8.4345 8.3025L6.189 9.612C6.13138 9.64491 6.08353 9.69252 6.05033 9.74997C6.01712 9.80742 5.99976 9.87265 6 9.939V12.561C6 12.696 6.072 12.8205 6.189 12.888L8.4345 14.1975C8.55225 14.265 8.697 14.265 8.8155 14.1975L11.061 12.888C11.1186 12.8551 11.1665 12.8075 11.1997 12.75C11.2329 12.6926 11.2502 12.6274 11.25 12.561V9.939C11.2502 9.87265 11.2329 9.80742 11.1997 9.74997C11.1665 9.69252 11.1186 9.64491 11.061 9.612L8.8155 8.3025C8.75769 8.26881 8.69191 8.2512 8.625 8.2515ZM20.625 8.2515C20.5581 8.2512 20.4923 8.26881 20.4345 8.3025L18.189 9.612C18.1314 9.64491 18.0835 9.69252 18.0503 9.74997C18.0171 9.80742 17.9998 9.87265 18 9.939V12.561C18 12.696 18.072 12.8205 18.189 12.888L20.367 14.2042C20.4246 14.239 20.4905 14.2577 20.5578 14.2582C20.6251 14.2587 20.6913 14.2411 20.7495 14.2073L21.8205 13.5848C21.8457 13.5699 21.8666 13.5487 21.8811 13.5234C21.8956 13.498 21.9032 13.4692 21.9032 13.44C21.9032 13.4108 21.8956 13.382 21.8811 13.3566C21.8666 13.3313 21.8457 13.3101 21.8205 13.2952L19.5 11.928V10.5825L20.625 9.92775L21.75 10.5825V11.52C21.75 11.6452 21.855 11.6647 21.9255 11.6227L23.064 10.9605C23.1205 10.9275 23.1674 10.8803 23.2 10.8236C23.2327 10.7669 23.2499 10.7027 23.25 10.6372V9.93975C23.2502 9.8734 23.2329 9.80817 23.1997 9.75072C23.1665 9.69327 23.1186 9.64566 23.061 9.61275L20.8155 8.30325C20.7577 8.26956 20.6919 8.25195 20.625 8.25225V8.2515ZM2.625 8.253C2.55809 8.2527 2.49231 8.27031 2.4345 8.304L0.189 9.612C0.131674 9.64562 0.0840963 9.69359 0.0509547 9.7512C0.0178131 9.8088 0.000251416 9.87404 0 9.9405L0 13.2877C0 13.4512 0.177 13.5525 0.318 13.4708L1.314 12.891C1.37062 12.858 1.41758 12.8107 1.45022 12.7538C1.48286 12.697 1.50002 12.6326 1.5 12.567V10.5847L2.625 9.9285L3.75 10.5847V12.567C3.75011 12.6324 3.76734 12.6967 3.79997 12.7534C3.8326 12.8101 3.87949 12.8573 3.936 12.8903L4.932 13.4708C4.96416 13.4895 5.0007 13.4994 5.03792 13.4995C5.07514 13.4996 5.11173 13.4899 5.14399 13.4713C5.17625 13.4528 5.20304 13.426 5.22166 13.3938C5.24027 13.3615 5.25005 13.325 5.25 13.2877V9.9405C5.24975 9.87404 5.23219 9.8088 5.19905 9.7512C5.1659 9.69359 5.11833 9.64562 5.061 9.612L2.8155 8.304C2.75769 8.27031 2.69191 8.2527 2.625 8.253ZM14.625 9.927L15.75 10.5833V11.9167L14.625 12.573L13.5 11.9167V10.5825L14.625 9.92625V9.927ZM20.625 10.503L19.9823 10.878V11.6265L20.625 12L21.2678 11.6265V10.878L20.625 10.503ZM11.5545 13.4985C11.4766 13.4979 11.3998 13.5175 11.3318 13.5555L9.22275 14.775C9.15509 14.8137 9.09885 14.8696 9.05974 14.937C9.02062 15.0045 9.00001 15.081 9 15.159V17.5935C9 17.7503 9.08775 17.898 9.22275 17.9775L9.77775 18.294C10.044 18.4253 10.1423 18.4252 10.263 18.4252C10.6605 18.4252 10.887 18.1875 10.887 17.7675V15.3622C10.8874 15.354 10.8861 15.3457 10.8832 15.338C10.8803 15.3303 10.8758 15.3232 10.87 15.3173C10.8642 15.3114 10.8573 15.3067 10.8496 15.3036C10.842 15.3005 10.8338 15.299 10.8255 15.2993H10.5585C10.5418 15.2993 10.5258 15.3059 10.514 15.3177C10.5021 15.3295 10.4955 15.3455 10.4955 15.3622V17.7675C10.4955 17.9498 10.3028 18.1373 9.9885 17.9805L9.411 17.6475C9.40158 17.6416 9.39377 17.6334 9.38828 17.6237C9.38278 17.614 9.37977 17.6031 9.3795 17.592V15.1575C9.3795 15.1357 9.39 15.1102 9.41175 15.099L11.5208 13.8832C11.5308 13.8776 11.5422 13.8746 11.5538 13.8746C11.5653 13.8746 11.5767 13.8776 11.5868 13.8832L13.698 15.0983C13.7198 15.1103 13.7303 15.132 13.7303 15.1575V17.592C13.7298 17.6036 13.7266 17.6149 13.721 17.625C13.7154 17.6352 13.7075 17.6439 13.698 17.6505L11.5868 18.8707C11.5767 18.8764 11.5653 18.8794 11.5538 18.8794C11.5422 18.8794 11.5308 18.8764 11.5208 18.8707L10.9823 18.5497C10.9673 18.5422 10.9448 18.5385 10.9305 18.546C10.8317 18.6091 10.7247 18.6584 10.6125 18.6923C10.5758 18.7035 10.5263 18.726 10.632 18.7845L11.3318 19.2007C11.4002 19.238 11.4766 19.2581 11.5545 19.2593C11.6321 19.2598 11.7082 19.2385 11.7743 19.1978L13.884 17.9775C13.9517 17.9388 14.0079 17.8829 14.047 17.8155C14.0861 17.748 14.1067 17.6715 14.1068 17.5935V15.159C14.106 15.0812 14.0851 15.0049 14.046 14.9376C14.007 14.8703 13.9512 14.8143 13.884 14.775L11.7743 13.5563C11.7071 13.5188 11.6314 13.4992 11.5545 13.4993V13.4985ZM14.8448 14.622C14.7916 14.6221 14.7389 14.6327 14.6898 14.6531C14.6407 14.6736 14.5961 14.7035 14.5586 14.7412C14.5211 14.7788 14.4913 14.8235 14.471 14.8727C14.4508 14.9219 14.4404 14.9746 14.4405 15.0278C14.4406 15.0809 14.4512 15.1336 14.4716 15.1827C14.4921 15.2318 14.522 15.2764 14.5597 15.3139C14.5973 15.3514 14.642 15.3812 14.6912 15.4015C14.7404 15.4217 14.7931 15.4321 14.8463 15.432C14.9537 15.4318 15.0566 15.3889 15.1324 15.3128C15.2082 15.2368 15.2507 15.1337 15.2505 15.0262C15.2503 14.9188 15.2074 14.8159 15.1313 14.7401C15.0553 14.6643 14.9522 14.6218 14.8448 14.622ZM14.8403 14.6865C15.0308 14.6865 15.1853 14.8365 15.1853 15.0262C15.1839 15.1173 15.1471 15.2043 15.0827 15.2687C15.0183 15.3331 14.9313 15.3699 14.8403 15.3713C14.7497 15.3703 14.6632 15.3334 14.5998 15.2687C14.5364 15.204 14.5012 15.1168 14.502 15.0262C14.5017 14.9817 14.5102 14.9375 14.5271 14.8962C14.544 14.855 14.5689 14.8175 14.6003 14.7859C14.6318 14.7543 14.6692 14.7292 14.7103 14.7122C14.7515 14.6951 14.7957 14.6864 14.8403 14.6865ZM14.6925 14.7968V15.252H14.7788V15.0705H14.8598C14.8928 15.0705 14.9003 15.084 14.9078 15.1095C14.9078 15.1132 14.9213 15.2317 14.925 15.2535H15.0188C15.0067 15.214 14.9994 15.1732 14.997 15.132C14.9865 15.0735 14.9835 15.033 14.9213 15.0292C14.9543 15.018 15.009 15.0007 15.009 14.9167C15.009 14.796 14.904 14.7968 14.8493 14.7968H14.6925ZM14.7788 14.8695H14.8523C14.8748 14.8695 14.9183 14.8695 14.9183 14.931C14.9183 14.9565 14.907 14.9985 14.8478 14.997H14.7788V14.8695ZM12.12 15.2415C11.5178 15.2415 11.16 15.4988 11.16 15.9218C11.16 16.3853 11.5185 16.509 12.0953 16.5668C12.7853 16.6365 12.8393 16.7355 12.8393 16.8705C12.8393 17.1075 12.6488 17.2057 12.2033 17.2057C11.6445 17.2057 11.5223 17.0677 11.4818 16.7902C11.478 16.7602 11.4518 16.7385 11.4188 16.7385H11.1443C11.136 16.7383 11.1278 16.7398 11.1201 16.7429C11.1124 16.746 11.1055 16.7507 11.0997 16.7566C11.094 16.7625 11.0895 16.7695 11.0866 16.7773C11.0836 16.785 11.0823 16.7932 11.0828 16.8015C11.0828 17.1555 11.2763 17.5792 12.1995 17.5792C12.8768 17.5792 13.26 17.3168 13.26 16.8563C13.26 16.4003 12.9525 16.2787 12.303 16.191C11.646 16.1032 11.5808 16.059 11.5808 15.9053C11.5808 15.7778 11.6348 15.6105 12.1208 15.6105C12.5543 15.6105 12.7163 15.7057 12.7823 15.9975C12.7903 16.028 12.8093 16.0437 12.8393 16.0447H13.113C13.1315 16.0437 13.1463 16.0377 13.1573 16.0267C13.1693 16.0132 13.1743 15.9977 13.1723 15.9802C13.1288 15.4762 12.7958 15.2415 12.12 15.2415Z" fill="black"/>
</svg>
