<svg width="24" height="24" viewBox="0 0 24 24" fill="none" xmlns="http://www.w3.org/2000/svg">
<path d="M16.8051 1C15.9249 1.00824 15.0497 1.13265 14.2021 1.37L14.1421 1.388C13.6084 1.29649 13.0685 1.24601 12.5271 1.237C11.4141 1.218 10.4571 1.48 9.68706 1.917C8.92706 1.661 7.35106 1.22 5.69006 1.308C4.53306 1.369 3.27106 1.71 2.33606 2.668C1.40306 3.626 0.91006 5.108 1.01406 7.125C1.04206 7.682 1.20506 8.589 1.47706 9.765C1.74706 10.94 2.12906 12.315 2.60406 13.57C3.07906 14.825 3.60006 15.954 4.41406 16.72C4.82006 17.104 5.37906 17.427 6.03806 17.4C6.50106 17.382 6.92006 17.185 7.28106 16.894C7.45706 17.119 7.64506 17.217 7.81606 17.308C8.03106 17.422 8.24106 17.5 8.45806 17.552C9.05898 17.7061 9.68487 17.737 10.2981 17.643C10.5651 17.6 10.8461 17.516 11.1261 17.396C11.1361 17.698 11.1481 17.994 11.1611 18.294C11.1991 19.244 11.2241 20.121 11.5181 20.89C11.5651 21.016 11.6941 21.663 12.2051 22.234C12.7151 22.806 13.7151 23.162 14.8531 22.926C15.6561 22.759 16.6781 22.458 17.3561 21.522C18.0261 20.596 18.3291 19.268 18.3891 17.113C18.4041 16.997 18.4221 16.898 18.4411 16.805L18.6011 16.819H18.6191C19.4761 16.857 20.4061 16.739 21.1831 16.389C21.8711 16.079 22.3911 15.767 22.7701 15.212C22.8651 15.075 22.9691 14.909 22.9971 14.622C23.0251 14.337 22.8571 13.889 22.5761 13.683C22.0131 13.269 21.6601 13.426 21.2811 13.503C20.9077 13.583 20.5291 13.6273 20.1451 13.636C21.2381 11.852 22.0211 9.956 22.4681 8.278C22.7321 7.288 22.8811 6.375 22.8931 5.577C22.9051 4.779 22.8381 4.072 22.3451 3.46C20.8041 1.55 18.6371 1.022 16.9611 1.004C16.9091 1.00267 16.8571 1.00233 16.8051 1.003V1ZM16.7611 1.587C18.3461 1.572 20.3721 2.004 21.8261 3.807C22.1531 4.212 22.2501 4.804 22.2391 5.534C22.2271 6.263 22.0881 7.135 21.8341 8.091C21.3411 9.943 20.4091 12.101 19.0961 14.039C19.1427 14.0713 19.193 14.0978 19.2461 14.118C19.5201 14.228 20.1441 14.322 21.3911 14.074C21.7041 14.009 21.9341 13.966 22.1721 14.142C22.229 14.1893 22.2743 14.2491 22.3043 14.3167C22.3343 14.3844 22.3482 14.4581 22.3451 14.532C22.3318 14.6437 22.2894 14.7499 22.2221 14.84C21.9821 15.191 21.5061 15.524 20.8961 15.798C20.3571 16.042 19.5831 16.169 18.8971 16.177C18.5531 16.18 18.2361 16.154 17.9671 16.073L17.9491 16.067C17.8451 17.038 17.6061 18.957 17.4511 19.832C17.3261 20.538 17.1081 21.099 16.6911 21.519C16.2751 21.939 15.6871 22.192 14.8951 22.357C13.9141 22.561 13.1991 22.341 12.7381 21.964C12.2781 21.589 12.0671 21.09 11.9401 20.784C11.8531 20.574 11.8081 20.301 11.7641 19.936C11.7157 19.499 11.6833 19.0604 11.6671 18.621C11.6384 17.8507 11.629 17.0798 11.6391 16.309C11.2291 16.672 10.7191 16.914 10.1721 17.005C9.52206 17.112 8.94006 17.007 8.59306 16.923C8.42294 16.8811 8.25844 16.819 8.10306 16.738C7.94106 16.655 7.78806 16.561 7.68606 16.375C7.62596 16.2688 7.60676 16.1443 7.63206 16.025C7.66481 15.9038 7.73736 15.797 7.83806 15.722C8.02606 15.574 8.27306 15.492 8.64606 15.416C9.32606 15.281 9.56306 15.188 9.70706 15.077C9.83006 14.982 9.96906 14.79 10.2151 14.507L10.2121 14.47C9.77365 14.4571 9.34386 14.345 8.95506 14.142C8.81406 14.286 8.09006 15.029 7.20706 16.059C6.83606 16.49 6.42606 16.737 5.99306 16.755C5.56006 16.773 5.16906 16.561 4.83706 16.249C4.17206 15.623 3.64206 14.546 3.18006 13.329C2.72006 12.111 2.34406 10.755 2.07806 9.6C1.81006 8.445 1.65206 7.514 1.63006 7.065C1.53006 5.156 1.99006 3.87 2.78006 3.059C3.57006 2.248 4.65206 1.94 5.70806 1.882C7.60206 1.776 9.40106 2.417 9.76506 2.555C10.4661 2.093 11.3691 1.805 12.4981 1.823C13.0332 1.83044 13.5658 1.89752 14.0861 2.023L14.1051 2.015C14.3344 1.937 14.5671 1.87167 14.8031 1.819C15.4455 1.67398 16.1015 1.59689 16.7601 1.589L16.7611 1.587ZM16.9041 2.201H16.7671C16.226 2.20829 15.6869 2.26722 15.1571 2.377C16.2088 2.83508 17.1329 3.54289 17.8491 4.439C18.2829 4.9751 18.6428 5.56706 18.9191 6.199C19.0231 6.441 19.0931 6.646 19.1321 6.804C19.1521 6.884 19.1661 6.951 19.1701 7.021C19.1738 7.06531 19.17 7.10992 19.1591 7.153L19.1531 7.165C19.1821 7.968 18.9771 8.512 18.9521 9.278C18.9331 9.834 19.0791 10.487 19.1151 11.198C19.1491 11.868 19.0661 12.603 18.6181 13.325C18.6554 13.369 18.6914 13.413 18.7261 13.457C19.9111 11.647 20.7661 9.643 21.2211 7.936C21.4641 7.016 21.5941 6.183 21.6051 5.523C21.6151 4.863 21.4881 4.384 21.3261 4.185C20.0581 2.612 18.3431 2.212 16.9041 2.201ZM12.3791 2.435C11.2621 2.437 10.4601 2.765 9.85306 3.255C9.22606 3.762 8.80606 4.455 8.53006 5.166C8.26291 5.87653 8.09957 6.62186 8.04506 7.379L8.05806 7.372C8.39506 7.188 8.83806 7.005 9.31206 6.899C9.78706 6.793 10.2981 6.76 10.7611 6.934C11.2241 7.108 11.6071 7.518 11.7461 8.14C12.4111 11.126 11.5391 12.236 11.2171 13.073C11.0963 13.3768 10.9921 13.6869 10.9051 14.002C10.9451 13.9907 10.9854 13.9827 11.0261 13.978C11.2017 13.9685 11.377 14.0029 11.5361 14.078C11.8601 14.208 12.0821 14.48 12.2021 14.792C12.2334 14.8747 12.2557 14.9613 12.2691 15.052C12.2824 15.09 12.2887 15.129 12.2881 15.169C12.2521 16.3108 12.2561 17.4535 12.3001 18.595C12.3221 19.089 12.3541 19.523 12.3951 19.866C12.4351 20.208 12.4931 20.468 12.5301 20.556C12.6501 20.85 12.8271 21.234 13.1471 21.495C13.4671 21.756 13.9241 21.929 14.7611 21.755C15.4871 21.604 15.9351 21.395 16.2351 21.092C16.5331 20.791 16.7121 20.372 16.8261 19.729C16.9971 18.766 17.3411 15.975 17.3821 15.449C17.3641 15.054 17.4241 14.749 17.5541 14.517C17.6891 14.279 17.8971 14.133 18.0761 14.054C18.1661 14.014 18.2501 13.988 18.3191 13.969C18.2455 13.8673 18.1688 13.7679 18.0891 13.671C17.8305 13.3685 17.6185 13.0291 17.4601 12.664C17.3837 12.5138 17.3027 12.3661 17.2171 12.221C17.0921 12.001 16.9331 11.726 16.7671 11.417C16.4341 10.798 16.0721 10.048 15.8841 9.317C15.6971 8.588 15.6691 7.833 16.1491 7.3C16.5751 6.827 17.3211 6.631 18.4421 6.741C18.4091 6.645 18.3891 6.565 18.3331 6.437C18.0801 5.85599 17.7494 5.31202 17.3501 4.82C16.4001 3.642 14.8631 2.474 12.4871 2.436H12.3791V2.435ZM6.10306 2.482C5.98306 2.482 5.86306 2.48533 5.74306 2.492C4.78906 2.545 3.88706 2.814 3.24206 3.478C2.59506 4.141 2.17006 5.229 2.26206 7.031C2.28106 7.371 2.43406 8.327 2.69606 9.461C2.95806 10.597 3.33006 11.932 3.77606 13.111C4.22206 14.291 4.76406 15.318 5.27806 15.804C5.53706 16.047 5.76206 16.145 5.96606 16.137C6.17106 16.127 6.41706 16.013 6.71906 15.662C7.26905 15.0184 7.83934 14.3924 8.42906 13.785C8.01239 13.4356 7.69163 12.9858 7.49706 12.478C7.30407 11.9751 7.24548 11.4305 7.32706 10.898C7.42406 10.22 7.43706 9.586 7.42606 9.086C7.41406 8.598 7.37806 8.274 7.37806 8.071V8.043C7.37703 6.98614 7.56639 5.93773 7.93706 4.948C8.20106 4.266 8.59506 3.573 9.18606 3.012C8.60606 2.827 7.57606 2.545 6.46106 2.492C6.34117 2.48558 6.22113 2.48225 6.10106 2.482H6.10306ZM17.8171 7.324C17.1761 7.332 16.8161 7.493 16.6271 7.703C16.3591 8.001 16.3341 8.523 16.5001 9.167C16.6661 9.811 17.0071 10.532 17.3291 11.13C17.4891 11.43 17.6451 11.7 17.7711 11.918C17.8981 12.138 17.9911 12.294 18.0471 12.428C18.1004 12.5487 18.1564 12.659 18.2151 12.759C18.4631 12.25 18.5081 11.751 18.4821 11.23C18.4491 10.586 18.2951 9.927 18.3181 9.26C18.3431 8.48 18.5021 7.971 18.5161 7.368C18.2841 7.33974 18.0507 7.32504 17.8171 7.324ZM10.0371 7.429C9.84117 7.43049 9.64602 7.45329 9.45506 7.497C9.07541 7.58651 8.709 7.72501 8.36506 7.909C8.24973 7.969 8.13973 8.03867 8.03506 8.118L8.01506 8.136C8.02106 8.27 8.04806 8.595 8.06006 9.072C8.07006 9.595 8.05806 10.262 7.95406 10.982C7.72806 12.55 8.90006 13.848 10.2781 13.85C10.3581 13.528 10.4911 13.202 10.6231 12.858C11.0071 11.855 11.7621 11.124 11.1261 8.269C11.0221 7.802 10.8161 7.613 10.5321 7.506C10.373 7.45078 10.2053 7.4247 10.0371 7.429ZM17.5171 7.616H17.5651C17.6277 7.618 17.6844 7.62467 17.7351 7.636C17.781 7.64525 17.8251 7.66251 17.8651 7.687C17.8833 7.69773 17.899 7.71218 17.9112 7.72941C17.9235 7.74665 17.9319 7.76627 17.9361 7.787V7.795C17.9387 7.83895 17.9267 7.88254 17.9021 7.919C17.8742 7.96942 17.8391 8.01556 17.7981 8.056C17.7011 8.15884 17.5734 8.22729 17.4341 8.251C17.2975 8.26717 17.1597 8.23343 17.0461 8.156C17.0003 8.12579 16.9589 8.08945 16.9231 8.048C16.8927 8.01562 16.872 7.97547 16.8631 7.932C16.8609 7.91061 16.8633 7.88901 16.8702 7.86865C16.8771 7.84829 16.8883 7.82965 16.9031 7.814C16.935 7.78044 16.9726 7.7527 17.0141 7.732C17.1725 7.65928 17.3438 7.61915 17.5181 7.614L17.5171 7.616ZM10.1291 7.77C10.1791 7.77 10.2314 7.774 10.2861 7.782C10.4301 7.802 10.5591 7.839 10.6571 7.894C10.7051 7.91867 10.7471 7.951 10.7831 7.991C10.8017 8.013 10.8157 8.03733 10.8251 8.064C10.8344 8.09067 10.8374 8.11833 10.8341 8.147C10.825 8.20002 10.8002 8.24912 10.7631 8.288C10.7244 8.33458 10.6789 8.37504 10.6281 8.408C10.5039 8.49257 10.3532 8.52918 10.2041 8.511C10.0527 8.48657 9.91362 8.41314 9.80806 8.302C9.76418 8.25724 9.72651 8.20679 9.69606 8.152C9.66492 8.10405 9.65115 8.04687 9.65706 7.99C9.67106 7.89 9.75606 7.84 9.83706 7.81C9.9307 7.7803 10.029 7.76809 10.1271 7.774L10.1291 7.77ZM18.6891 14.502H18.6861C18.5471 14.552 18.4331 14.572 18.3361 14.612C18.2394 14.6478 18.1593 14.718 18.1111 14.809C18.0511 14.914 18.0011 15.101 18.0161 15.419C18.0591 15.4474 18.1064 15.469 18.1561 15.483C18.3171 15.531 18.5881 15.563 18.8911 15.558C19.4931 15.551 20.2351 15.415 20.6291 15.237C20.9521 15.091 21.2521 14.901 21.5201 14.673C20.2031 14.937 19.4601 14.867 19.0031 14.684C18.8903 14.638 18.7846 14.5774 18.6891 14.502ZM11.1011 14.587H11.0811C11.0311 14.591 10.9581 14.607 10.8181 14.759C10.4881 15.117 10.3741 15.341 10.1021 15.551C9.83206 15.761 9.47906 15.872 8.77506 16.012C8.55206 16.056 8.42506 16.105 8.33906 16.144C8.36706 16.166 8.36406 16.172 8.40506 16.193C8.50806 16.248 8.64106 16.296 8.74706 16.323C9.05006 16.396 9.54706 16.482 10.0661 16.396C10.5851 16.31 11.1241 16.069 11.5841 15.443C11.6641 15.335 11.6721 15.175 11.6071 15.003C11.5401 14.833 11.3961 14.685 11.2941 14.643C11.2332 14.6143 11.168 14.5961 11.1011 14.589V14.587Z" fill="black"/>
</svg>
