<svg width="24" height="26" viewBox="0 0 24 26" fill="none" xmlns="http://www.w3.org/2000/svg">
<path d="M16.5996 0C15.2813 0 13.5558 0.939656 11.8111 2.56933C10.0663 0.949203 8.34092 0.0190937 7.02284 0.0190937V0.0237656C6.62025 0.0237656 6.25584 0.110297 5.93937 0.2925C4.59266 1.06884 4.29081 3.48948 4.9857 6.52823C2.00444 7.44839 0.0631718 8.92003 0.0631718 10.4729C0.0631718 12.0309 2.01398 13.5068 5.0048 14.4221C4.31458 17.4706 4.6215 19.8957 5.9733 20.6722C6.28469 20.8542 6.64889 20.9408 7.05148 20.9408C8.36977 20.9408 10.0953 20.0011 11.84 18.3716C13.5848 19.9916 15.3101 20.9219 16.6282 20.9219C17.0304 20.9219 17.3948 20.8355 17.7113 20.6533C19.058 19.8768 19.36 17.4562 18.665 14.4174C21.6367 13.5021 23.5779 12.026 23.5779 10.4727C23.5779 8.91536 21.6273 7.43905 18.6363 6.52356C19.3265 3.47527 19.0196 1.05016 17.668 0.273609C17.3578 0.0920156 16.9951 0.00589063 16.5996 0.00528125V0ZM16.5945 1.06925V1.07352C16.8149 1.07352 16.9926 1.11678 17.1409 1.19823C17.7929 1.57198 18.0757 2.99589 17.8553 4.82666C17.8025 5.27719 17.7164 5.75169 17.6107 6.23573C16.6713 6.0058 15.6455 5.82847 14.5671 5.7133C13.9202 4.82666 13.2488 4.02127 12.5732 3.31642C14.1332 1.86712 15.5976 1.07209 16.5945 1.06925ZM7.02284 1.08794C8.01511 1.08794 9.48634 1.8787 11.0488 3.3215C10.335 4.07255 9.67366 4.87169 9.06933 5.7133C7.98606 5.82847 6.96089 6.0058 6.02123 6.24061C5.91537 5.78157 5.83205 5.31762 5.77159 4.85042C5.54653 3.01945 5.82441 1.59636 6.47156 1.21753C6.61517 1.13141 6.80266 1.09302 7.02284 1.09302V1.08794ZM11.8064 4.07387C12.2767 4.56195 12.7214 5.07396 13.1389 5.60787C12.6998 5.587 12.2603 5.57589 11.8207 5.57456C11.3699 5.57456 10.9245 5.58391 10.4884 5.60787C10.8996 5.0732 11.3396 4.56118 11.8062 4.07408L11.8064 4.07387ZM11.8207 6.64808C12.5444 6.64808 13.2683 6.6818 13.9776 6.73928C14.3889 7.33035 14.7759 7.938 15.1375 8.5607C15.4971 9.18187 15.8298 9.81824 16.1346 10.468C15.8296 11.1185 15.4986 11.7564 15.1424 12.3803C14.7686 13.0272 14.3847 13.6411 13.9872 14.2114C13.2728 14.2738 12.5491 14.3069 11.8207 14.3069C11.0967 14.3069 10.3732 14.2738 9.66388 14.2163C9.25259 13.6253 8.86565 13.0177 8.50403 12.3951C8.14439 11.7737 7.8117 11.1372 7.50689 10.4871C7.81 9.83576 8.14106 9.19776 8.49916 8.57492C8.87291 7.92797 9.2562 7.31433 9.65412 6.74395C10.3746 6.68065 11.0974 6.64866 11.8207 6.64808ZM8.25906 6.89711C8.02425 7.26619 7.78984 7.64461 7.56925 8.03298C7.35233 8.41144 7.14454 8.79505 6.94606 9.18348C6.69444 8.55894 6.47371 7.92239 6.28469 7.27614C6.91234 7.12745 7.57372 6.99786 8.25906 6.89711ZM15.3725 6.89711C16.053 6.99786 16.7095 7.12258 17.3375 7.27614C17.16 7.89445 16.9394 8.53145 16.6904 9.16927C16.4921 8.77981 16.2827 8.39615 16.0623 8.01877C15.8419 7.63527 15.6073 7.26152 15.3725 6.89711ZM18.3727 7.55889C18.8291 7.70058 19.2787 7.86366 19.7198 8.04761C21.4165 8.77134 22.514 9.72034 22.514 10.4729C22.5091 11.2255 21.4114 12.1792 19.7147 12.8982C19.3024 13.0754 18.8522 13.2338 18.3873 13.3823C18.1141 12.443 17.7543 11.4648 17.3087 10.4634C17.7495 9.46644 18.1041 8.49367 18.3725 7.55869L18.3727 7.55889ZM5.24916 7.56377C5.52236 8.50302 5.88209 9.48066 6.32775 10.4825C5.88697 11.4794 5.53211 12.4526 5.26378 13.3872C4.80873 13.2461 4.36085 13.0828 3.92173 12.898C2.22503 12.1743 1.12714 11.2255 1.12714 10.4727C1.12714 9.72034 2.22503 8.76647 3.92173 8.04741C4.33408 7.87028 4.7842 7.71225 5.24916 7.56377ZM11.8158 8.28263C10.6062 8.28263 9.62548 9.26311 9.62548 10.4729C9.62548 11.6827 10.6062 12.6632 11.8158 12.6632C13.0256 12.6632 14.0061 11.6827 14.0061 10.4729C14.0061 9.26311 13.0256 8.28263 11.8158 8.28263ZM16.6904 11.7575C16.942 12.382 17.1627 13.0186 17.3518 13.6648C16.7 13.8235 16.0411 13.9516 15.3774 14.0487C15.6167 13.6758 15.8467 13.2969 16.0672 12.9125C16.2842 12.5325 16.492 12.1474 16.6904 11.7575ZM6.94606 11.7766C7.14426 12.166 7.35363 12.5497 7.57392 12.9271C7.79639 13.3055 8.02665 13.6794 8.26455 14.0483C7.58408 13.9478 6.92677 13.8229 6.29891 13.6695C6.47623 13.0512 6.69703 12.4142 6.94606 11.7766ZM17.6203 14.7002C17.7306 15.1844 17.8167 15.6494 17.8695 16.0952C18.0946 17.926 17.8167 19.3493 17.1697 19.7279C17.0259 19.8142 16.8393 19.853 16.6187 19.853C15.6264 19.853 14.1548 19.0621 12.5921 17.6193C13.3063 16.8684 13.9678 16.0693 14.572 15.2275C15.655 15.1125 16.681 14.935 17.6203 14.7002ZM6.03078 14.7097C6.97023 14.9398 7.99561 15.1172 9.074 15.2321C9.72095 16.119 10.3923 16.9242 11.0681 17.629C9.50544 19.0814 8.03888 19.8768 7.04214 19.8768C6.82642 19.8719 6.64422 19.8289 6.50041 19.7474C5.84858 19.3737 5.56603 17.95 5.78642 16.119C5.83923 15.6685 5.92516 15.194 6.03078 14.7097ZM10.4979 15.3378C10.9293 15.3569 11.3701 15.3711 11.8158 15.3711C12.2663 15.3711 12.7122 15.3617 13.1483 15.3378C12.7369 15.8724 12.2968 16.3843 11.83 16.8714C11.3843 16.4113 10.9389 15.8984 10.4979 15.3378ZM19.1084 22.8367C19.0323 22.8369 18.9745 22.8588 18.9351 22.9025C18.8972 22.9464 18.8782 23 18.878 23.0632C18.878 23.1266 18.897 23.1794 18.9349 23.2217C18.9744 23.2638 19.0323 23.2849 19.1086 23.285C19.2229 23.2852 19.2424 23.2637 19.2818 23.2217C19.3215 23.1786 19.3426 23.1217 19.3408 23.0632C19.3408 22.9998 19.3211 22.9464 19.2818 22.9027C19.2423 22.8587 19.1843 22.8367 19.1084 22.8367ZM0 22.8794V25.9573H0.407875V24.7122H1.131L1.79928 25.9573H2.23478V25.932L1.51166 24.6257C1.69636 24.5551 1.84011 24.4486 1.94289 24.3061C2.04716 24.164 2.0993 23.997 2.0993 23.8052C2.09943 23.5035 2.00572 23.2738 1.81817 23.116C1.63224 22.9581 1.36581 22.8792 1.01888 22.8792L0 22.8794ZM12.0784 22.8794V25.9573H12.4867V23.5855L14.0363 25.9573H14.4446V22.8794H14.0404V25.262L12.4867 22.8794H12.0784ZM9.66631 23.116V23.67H9.24991V23.9722H9.66631V25.3908C9.66631 25.5854 9.71059 25.7355 9.79916 25.8412C9.88826 25.9468 10.0202 25.9997 10.1948 25.9998C10.2923 25.9998 10.3924 25.9856 10.4951 25.9573V25.6405C10.4161 25.6574 10.3541 25.6659 10.309 25.6659C10.2175 25.6659 10.1527 25.6432 10.1146 25.598C10.0767 25.5514 10.0577 25.4824 10.0577 25.3908V23.9722H10.4843V23.67H10.0577V23.116H9.66631ZM17.599 23.116V23.67H17.1823V23.9722H17.5987V25.3908C17.5989 25.5854 17.6433 25.7355 17.732 25.8412C17.8208 25.9468 17.9525 25.9997 18.1271 25.9998C18.2246 25.9998 18.3247 25.9856 18.4275 25.9573V25.6405C18.3484 25.6574 18.2864 25.6659 18.2414 25.6659C18.1499 25.6659 18.0851 25.6432 18.047 25.598C18.0091 25.5514 17.9901 25.4824 17.99 25.3908V23.9722H18.4165V23.67H17.99V23.116H17.599ZM0.407875 23.2135H1.02944C1.24367 23.2147 1.40718 23.2662 1.51998 23.3679C1.63414 23.4691 1.69122 23.6148 1.69122 23.8052C1.69122 23.9799 1.63136 24.1194 1.51166 24.2237C1.3933 24.3281 1.23324 24.3803 1.03147 24.3805H0.407875V23.2135ZM3.50959 23.6275C3.32759 23.6275 3.15846 23.6783 3.00219 23.7798C2.84714 23.8799 2.72594 24.0195 2.63859 24.1987C2.55233 24.3762 2.50927 24.5784 2.50941 24.8052V24.8771C2.50941 25.2181 2.6067 25.4908 2.8013 25.6951C2.99589 25.8982 3.24824 25.9998 3.55834 25.9998C3.94157 25.9998 4.22906 25.8525 4.42081 25.5578L4.18194 25.3717C4.11297 25.4618 4.02749 25.5379 3.93006 25.596C3.83419 25.6523 3.71726 25.6805 3.57927 25.6805C3.38481 25.6805 3.22414 25.6114 3.09725 25.4733C2.97185 25.3338 2.90631 25.1513 2.90062 24.9259H4.45006V24.7628C4.4502 24.3977 4.36786 24.1172 4.20306 23.9214C4.03812 23.7255 3.80697 23.6275 3.50959 23.6275ZM5.79516 23.6275C5.63739 23.6259 5.48107 23.6578 5.3365 23.7209C5.19824 23.7827 5.08821 23.8671 5.00642 23.9742C4.92612 24.08 4.8859 24.19 4.88577 24.3043H5.27922C5.27922 24.2041 5.32648 24.1188 5.421 24.0484C5.51538 23.978 5.63225 23.9428 5.77159 23.9428C5.93111 23.9428 6.05177 23.9836 6.13356 24.0654C6.21522 24.1456 6.25605 24.254 6.25605 24.3906V24.5704H5.87519C5.5468 24.5704 5.29168 24.6367 5.10981 24.7693C4.92944 24.9005 4.83925 25.0852 4.83925 25.3234C4.83925 25.5192 4.91122 25.6812 5.05517 25.8095C5.20034 25.9364 5.38559 25.9998 5.61092 25.9998C5.86334 25.9998 6.08048 25.9054 6.26234 25.7166C6.27656 25.8322 6.29484 25.9124 6.31719 25.9573H6.7275V25.9236C6.67401 25.7997 6.64727 25.6327 6.64727 25.4225V24.3697C6.64158 24.1386 6.56392 23.9575 6.41428 23.8266C6.26505 23.6939 6.05868 23.6275 5.79516 23.6275ZM8.17538 23.6275C7.96697 23.6275 7.78592 23.6756 7.63222 23.7717C7.48001 23.8672 7.36301 24.0017 7.28122 24.1753C7.19943 24.3485 7.15853 24.5465 7.15853 24.7693V24.8347C7.15853 25.1957 7.25021 25.4805 7.43356 25.6892C7.61827 25.8964 7.86635 26 8.17781 26C8.33287 26 8.47939 25.9647 8.61737 25.894C8.75054 25.8287 8.86537 25.7313 8.95152 25.6106C9.0348 25.4923 9.08003 25.3675 9.0872 25.2365H8.71691C8.70567 25.3633 8.64791 25.469 8.54364 25.5535C8.44061 25.6378 8.31107 25.6827 8.17802 25.6805C7.97625 25.6805 7.82106 25.6094 7.71245 25.4672C7.60412 25.3247 7.54995 25.1217 7.54995 24.858V24.7843C7.54995 24.5136 7.60412 24.3071 7.71245 24.1648C7.82241 24.021 7.97679 23.9492 8.17558 23.9495C8.32359 23.9493 8.44756 23.9971 8.5475 24.0929C8.64933 24.1872 8.7058 24.3084 8.71691 24.4565H9.0872C9.07569 24.2113 8.98469 24.0119 8.8142 23.8583C8.64493 23.7046 8.43199 23.6276 8.17538 23.6275ZM15.9941 23.6275C15.8364 23.6259 15.6801 23.6578 15.5356 23.7209C15.3973 23.7827 15.2873 23.8671 15.2055 23.9742C15.1252 24.08 15.0851 24.19 15.0853 24.3043H15.4783C15.4783 24.2041 15.5256 24.1188 15.6201 24.0484C15.7145 23.978 15.8314 23.9428 15.9707 23.9428C16.1302 23.9428 16.2509 23.9836 16.3327 24.0654C16.4143 24.1456 16.4552 24.254 16.4552 24.3906V24.5704H16.0747C15.746 24.5704 15.4908 24.6367 15.3089 24.7693C15.1285 24.9005 15.0384 25.0852 15.0384 25.3234C15.0384 25.5192 15.1103 25.6812 15.2543 25.8095C15.3993 25.9364 15.5846 25.9998 15.81 25.9998C16.0624 25.9998 16.2796 25.9054 16.4615 25.7166C16.4754 25.8322 16.4937 25.9124 16.5163 25.9573H16.9266V25.9236C16.8731 25.7997 16.8464 25.6327 16.8464 25.4225V24.3697C16.8406 24.1386 16.7629 23.9575 16.6134 23.8266C16.4642 23.6939 16.2579 23.6275 15.9941 23.6275ZM22.8973 23.6275C22.7168 23.6271 22.5402 23.6801 22.3899 23.7798C22.2347 23.8799 22.1134 24.0195 22.0261 24.1987C21.9401 24.3762 21.8971 24.5784 21.8971 24.8052V24.8771C21.8971 25.2181 21.9944 25.4908 22.1892 25.6951C22.3835 25.8982 22.6356 25.9998 22.9456 25.9998C23.3291 25.9998 23.6167 25.8525 23.8085 25.5578L23.5696 25.3717C23.5006 25.4618 23.4152 25.5379 23.3177 25.596C23.222 25.6523 23.1051 25.6805 22.9671 25.6805C22.7724 25.6805 22.6117 25.6114 22.4851 25.4733C22.3596 25.3338 22.2939 25.1513 22.2881 24.9259H23.8379V24.7628C23.8379 24.3977 23.7555 24.1172 23.5907 23.9214C23.4259 23.7256 23.1948 23.6276 22.8973 23.6275ZM18.9097 23.6702V25.9573H19.3009V23.6702H18.9097ZM19.7027 23.6702L20.5311 25.9573H20.8297L21.6499 23.6702H21.2497L20.6834 25.427L20.1025 23.67L19.7027 23.6702ZM3.50959 23.9492C3.67291 23.9492 3.80264 24.0041 3.89878 24.1138C3.99452 24.2224 4.04801 24.3761 4.05925 24.5749V24.6045H2.91322C2.93854 24.3973 3.0049 24.2365 3.11228 24.1221C3.1622 24.0665 3.22354 24.0222 3.2921 23.9924C3.36067 23.9626 3.43485 23.9478 3.50959 23.9492ZM22.8973 23.9492C23.0607 23.9492 23.1903 24.0041 23.286 24.1138C23.3819 24.2224 23.4354 24.3761 23.4465 24.5749V24.6045H22.3009C22.3262 24.3973 22.3925 24.2365 22.4997 24.1221C22.5497 24.0664 22.6111 24.0222 22.6797 23.9924C22.7483 23.9626 22.8225 23.9477 22.8973 23.9492ZM5.94933 24.8477H6.25605V25.3169C6.20675 25.4185 6.12713 25.5009 6.01717 25.5643C5.91136 25.6264 5.79091 25.6592 5.6682 25.6594C5.53983 25.6594 5.43488 25.6248 5.35336 25.5558C5.27143 25.4867 5.23047 25.3909 5.23047 25.2683C5.23047 24.988 5.47016 24.8479 5.94953 24.8479L5.94933 24.8477ZM16.1482 24.8477H16.455V25.3169C16.4058 25.4185 16.3262 25.5009 16.2163 25.5643C16.1103 25.6265 15.9897 25.6593 15.8669 25.6594C15.7389 25.6594 15.634 25.6248 15.5521 25.5558C15.4705 25.4867 15.4297 25.3909 15.4296 25.2683C15.4296 24.988 15.6693 24.8479 16.1486 24.8479L16.1482 24.8477Z" fill="black"/>
</svg>
