<svg width="24" height="24" viewBox="0 0 24 24" fill="none" xmlns="http://www.w3.org/2000/svg">
<g clip-path="url(#clip0_1622_677)">
<path d="M23.56 14.723C23.5464 14.6806 23.5272 14.6403 23.503 14.603C23.363 14.3397 23.0273 14.2627 22.496 14.372C20.842 14.712 20.202 14.502 19.97 14.352C21.312 12.304 22.415 9.83 23.011 7.522C23.283 6.472 23.809 3.999 23.133 2.792C23.09 2.70911 23.0398 2.63014 22.983 2.556C21.693 0.910002 19.8 0.0250021 17.51 0.00100212C16.015 -0.0149979 14.74 0.347002 14.394 0.480002C14.2227 0.448179 14.0507 0.420837 13.878 0.398002C13.4449 0.319651 13.0061 0.277173 12.566 0.271002C11.384 0.252002 10.363 0.535002 9.51599 1.111C8.65999 0.790002 4.72899 -0.533998 2.29599 1.19C0.934989 2.153 0.308989 3.873 0.429989 6.304C0.470989 7.122 0.936989 9.638 1.67299 12.048C2.13299 13.5547 2.61066 14.7487 3.10599 15.63C3.65932 16.6253 4.23066 17.222 4.81999 17.42C5.26799 17.568 5.95299 17.563 6.67799 16.691C7.3069 15.9388 7.95546 15.2032 8.62299 14.485C9.05799 14.72 9.52899 14.847 10.013 14.862V14.866C9.92885 14.9662 9.8465 15.0679 9.76599 15.171C9.42699 15.601 9.35599 15.691 8.26599 15.916C7.95599 15.98 7.13199 16.149 7.11999 16.727C7.11822 16.8425 7.14981 16.956 7.21099 17.054C7.43799 17.477 8.13299 17.664 8.22599 17.687C9.56099 18.02 10.731 17.779 11.598 17.008C11.581 19.239 11.675 21.426 11.943 22.096C12.164 22.649 12.705 24 14.413 24C14.663 24.0007 14.9393 23.9693 15.242 23.906C17.024 23.524 17.798 22.736 18.097 21C18.247 20.13 18.499 18.125 18.636 16.899C18.653 16.829 18.672 16.779 18.693 16.763C18.693 16.763 18.763 16.715 19.12 16.793L19.164 16.8L19.418 16.822L19.433 16.823C20.28 16.862 21.344 16.681 21.964 16.393C22.608 16.093 23.771 15.36 23.56 14.723ZM2.36999 11.876C1.62599 9.441 1.19199 6.991 1.15799 6.305C1.04899 4.133 1.57499 2.622 2.71999 1.812C4.55699 0.513002 7.55999 1.272 8.82799 1.682L8.81799 1.692C6.79499 3.734 6.84299 7.226 6.84999 7.44C6.84999 7.522 6.85599 7.639 6.86599 7.8C6.89999 8.386 6.96599 9.48 6.79199 10.718C6.63199 11.868 6.98599 12.994 7.76499 13.807C7.84499 13.891 7.92899 13.97 8.01699 14.044C7.66999 14.415 6.91699 15.237 6.11399 16.202C5.54599 16.884 5.15399 16.753 5.02599 16.71C4.63399 16.58 4.21299 16.123 3.78699 15.388C3.30699 14.549 2.82399 13.356 2.37199 11.876M8.37899 16.964C8.22706 16.9261 8.0815 16.8662 7.94699 16.786C8.03599 16.747 8.18399 16.696 8.42999 16.646C9.71399 16.381 9.91199 16.195 10.345 15.646C10.462 15.494 10.5844 15.3462 10.712 15.203C10.7446 15.1647 10.7697 15.1206 10.786 15.073C10.956 14.922 11.058 14.963 11.222 15.031C11.378 15.096 11.53 15.291 11.592 15.506C11.622 15.608 11.654 15.801 11.547 15.951C10.643 17.217 9.32499 17.201 8.37899 16.964ZM10.473 12.976L10.421 13.116C10.288 13.473 10.164 13.805 10.087 14.12C9.41999 14.118 8.76999 13.832 8.27699 13.317C7.64899 12.662 7.36399 11.751 7.49399 10.817C7.67699 9.509 7.60999 8.37 7.57399 7.758L7.56099 7.538C7.85699 7.276 9.22699 6.542 10.204 6.766C10.65 6.868 10.922 7.172 11.034 7.694C11.619 10.398 11.112 11.524 10.704 12.43C10.6214 12.6094 10.5446 12.7915 10.474 12.976M17.838 17.548C17.822 17.7253 17.8013 17.924 17.776 18.144L17.63 18.582C17.6191 18.617 17.613 18.6533 17.612 18.69C17.606 19.165 17.558 19.339 17.497 19.56C17.3977 19.9045 17.3373 20.2591 17.317 20.617C17.207 22.031 16.439 22.844 14.9 23.173C13.385 23.498 13.116 22.677 12.88 21.952C12.8553 21.8759 12.8293 21.8002 12.802 21.725C12.587 21.139 12.612 20.313 12.645 19.17C12.661 18.609 12.62 17.269 12.315 16.524C12.319 16.2307 12.3253 15.9333 12.334 15.632C12.3341 15.5938 12.3287 15.5557 12.318 15.519C12.307 15.4489 12.2923 15.3795 12.274 15.311C12.152 14.883 11.854 14.525 11.494 14.376C11.352 14.317 11.091 14.209 10.777 14.289C10.844 14.013 10.96 13.702 11.086 13.364L11.139 13.222C11.199 13.062 11.273 12.897 11.352 12.722C11.778 11.774 12.362 10.476 11.728 7.544C11.491 6.446 10.698 5.91 9.49599 6.034C8.77599 6.109 8.11599 6.4 7.78699 6.566C7.72102 6.59946 7.65568 6.63413 7.59099 6.67C7.68299 5.564 8.02999 3.496 9.32699 2.188C9.42321 2.09088 9.52434 1.99876 9.62999 1.912C9.68258 1.90204 9.73219 1.88014 9.77499 1.848C10.527 1.278 11.47 0.998002 12.577 1.015C12.9877 1.02167 13.379 1.04867 13.751 1.096C15.691 1.451 16.995 2.543 17.787 3.479C18.601 4.441 19.042 5.41 19.218 5.933C17.895 5.799 16.995 6.06 16.538 6.713C15.546 8.131 17.082 10.885 17.82 12.209C17.955 12.451 18.072 12.661 18.109 12.749C18.349 13.332 18.66 13.721 18.887 14.005C18.957 14.092 19.025 14.176 19.076 14.25C18.676 14.366 17.956 14.633 18.021 15.967C17.9962 16.239 17.9682 16.5107 17.937 16.782C17.891 16.99 17.868 17.242 17.838 17.548ZM18.727 15.927C18.687 15.095 18.997 15.008 19.324 14.917L19.459 14.876C19.5007 14.9141 19.5455 14.9485 19.593 14.979C20.163 15.355 21.176 15.4 22.6 15.113C22.398 15.29 22.081 15.513 21.647 15.714C21.237 15.904 20.551 16.047 19.9 16.078C19.18 16.112 18.814 15.998 18.727 15.927ZM19.297 6.656C19.2861 6.99176 19.251 7.32629 19.192 7.657C19.137 8.015 19.08 8.385 19.065 8.834C19.051 9.27 19.105 9.724 19.158 10.164C19.265 11.051 19.374 11.964 18.951 12.865C18.8815 12.7401 18.8187 12.6116 18.763 12.48C18.6637 12.2697 18.5552 12.0638 18.438 11.863C17.822 10.759 16.381 8.173 17.118 7.119C17.498 6.576 18.46 6.553 19.297 6.656ZM19.525 13.669L19.44 13.562L19.405 13.518C20.131 12.318 19.989 11.131 19.862 10.079C19.81 9.647 19.762 9.239 19.774 8.857C19.787 8.45 19.84 8.102 19.892 7.765C19.956 7.35 20.022 6.921 20.003 6.415C20.0171 6.35271 20.0211 6.28857 20.015 6.225C19.969 5.739 19.415 4.287 18.285 2.972C17.5486 2.10401 16.6311 1.40772 15.597 0.932002C16.2625 0.796315 16.9409 0.733943 17.62 0.746002C19.672 0.792002 21.295 1.56 22.444 3.029C22.4683 3.06096 22.4907 3.09435 22.511 3.129C23.234 4.485 22.236 9.404 19.525 13.669ZM10.708 7.553C10.683 7.733 10.398 7.976 10.087 7.976L10.006 7.97C9.80304 7.9341 9.62178 7.82126 9.49999 7.655C9.45399 7.595 9.37999 7.477 9.39399 7.37C9.39843 7.34011 9.40897 7.31145 9.42498 7.28582C9.44098 7.26018 9.46209 7.23812 9.48699 7.221C9.60499 7.132 9.83899 7.099 10.097 7.135C10.413 7.179 10.739 7.328 10.707 7.553M18.637 7.142C18.648 7.222 18.588 7.342 18.484 7.452C18.3764 7.56941 18.2329 7.64784 18.076 7.675L18.001 7.68C17.708 7.68 17.46 7.446 17.441 7.309C17.417 7.132 17.705 6.999 18.001 6.957C18.299 6.915 18.613 6.966 18.637 7.142Z" fill="black"/>
</g>
<defs>
<clipPath id="clip0_1622_677">
<rect width="24" height="24" fill="white"/>
</clipPath>
</defs>
</svg>
