<svg width="25" height="25" viewBox="0 0 25 25" fill="none" xmlns="http://www.w3.org/2000/svg">
<path d="M3.9248 16.4248C1.76113 16.4248 0 14.6637 0 12.5C0 10.3363 1.76113 8.5752 3.9248 8.5752C6.08848 8.5752 7.84961 10.3363 7.84961 12.5C7.84961 14.6637 6.08848 16.4248 3.9248 16.4248ZM3.9248 15.7693C5.73437 15.7693 7.19434 14.3096 7.19434 12.5C7.19434 10.6904 5.73437 9.23047 3.9248 9.23047C3.49526 9.2298 3.0698 9.31391 2.67282 9.47799C2.27584 9.64206 1.91514 9.88286 1.61141 10.1866C1.30767 10.4903 1.06686 10.851 0.90279 11.248C0.738717 11.645 0.654605 12.0705 0.655273 12.5C0.655273 14.3096 2.11523 15.7693 3.9248 15.7693Z" fill="#010101"/>
<path fill-rule="evenodd" clip-rule="evenodd" d="M2.87563 12.3248C3.73501 11.6227 4.57583 10.8963 5.45396 10.2147C4.99341 10.9225 4.51958 11.6209 4.05903 12.3285C3.66392 12.3305 3.2688 12.3305 2.87563 12.3248ZM3.6022 12.7162C3.99907 12.7162 4.39419 12.7162 4.78931 12.7219C3.92407 13.4203 3.08735 14.1524 2.20728 14.832C2.66782 14.1242 3.14165 13.4238 3.6022 12.7162Z" fill="#010101"/>
<path fill-rule="evenodd" clip-rule="evenodd" d="M9.57397 13.7789C9.73511 13.8685 9.97241 13.9312 10.2367 13.9312C10.8144 13.9312 11.1234 13.6445 11.1234 13.2506C11.1189 12.9281 10.9353 12.7266 10.5414 12.5832C10.2636 12.4848 10.1605 12.4176 10.1605 12.2787C10.1605 12.1445 10.2679 12.0504 10.4652 12.0504C10.6576 12.0504 10.8324 12.1221 10.9263 12.1758L11.0337 11.7861C10.9083 11.7189 10.6978 11.6562 10.456 11.6562C9.95015 11.6562 9.63218 11.9562 9.63218 12.3414C9.62769 12.5967 9.80679 12.8297 10.2322 12.9773C10.5009 13.0715 10.5904 13.1475 10.5904 13.2953C10.5904 13.4387 10.483 13.5371 10.2412 13.5371C10.0441 13.5371 9.80679 13.4564 9.6814 13.3805L9.57397 13.7789ZM12.3787 11.6562C11.7205 11.6562 11.2503 12.0951 11.2503 12.8115C11.2503 13.5102 11.725 13.9355 12.3429 13.9355C12.8982 13.9355 13.4625 13.5773 13.4625 12.7758C13.4625 12.1131 13.0281 11.6562 12.3787 11.6562ZM12.3654 12.0592C12.7416 12.0592 12.8937 12.4488 12.8937 12.7893C12.8937 13.2281 12.6744 13.5371 12.3609 13.5371C12.025 13.5371 11.8191 13.2191 11.8191 12.7982C11.8191 12.4353 11.9757 12.0592 12.3654 12.0592ZM15.2552 13.4117C15.1478 13.4566 15.0134 13.4967 14.8209 13.4967C14.4447 13.4967 14.1537 13.2416 14.1537 12.7935C14.1492 12.3951 14.3998 12.0861 14.8209 12.0861C15.0179 12.0861 15.1478 12.131 15.2373 12.1713L15.3359 11.7592C15.2105 11.701 15.0044 11.6562 14.8029 11.6562C14.0373 11.6562 13.5894 12.1668 13.5894 12.8205C13.5894 13.4967 14.0328 13.931 14.7134 13.931C14.9865 13.931 15.215 13.8728 15.3314 13.8191L15.2552 13.4117ZM16.1031 10.7066H15.5523V13.8863H16.1031V13.143L16.2912 12.9234L16.9181 13.8863H17.5943L16.6718 12.5967L17.4779 11.7055H16.8152L16.2867 12.4086C16.2285 12.4848 16.1658 12.5785 16.1121 12.6639H16.1031V10.7066ZM19.4632 12.9504C19.4759 12.8734 19.4819 12.7954 19.4812 12.7174C19.4812 12.2383 19.2484 11.656 18.5408 11.656C17.8421 11.656 17.475 12.2248 17.475 12.8295C17.475 13.4967 17.8916 13.931 18.599 13.931C18.9125 13.931 19.1722 13.8728 19.3603 13.7967L19.2796 13.416C19.114 13.4787 18.9304 13.5146 18.6751 13.5146C18.3259 13.5146 18.0169 13.3443 18.0033 12.9502L19.4632 12.9504ZM18.0035 12.5652C18.0257 12.3412 18.1691 12.0322 18.5093 12.0322C18.8765 12.0322 18.9664 12.3637 18.9617 12.5652H18.0035ZM19.832 11.2127V11.7055H19.5185V12.1174H19.832V13.1428C19.832 13.4295 19.8857 13.6266 20.0021 13.7519C20.1052 13.8639 20.2753 13.931 20.4767 13.931C20.6515 13.931 20.7949 13.9086 20.8753 13.8773L20.8666 13.4564C20.8171 13.4697 20.7455 13.4832 20.6517 13.4832C20.441 13.4832 20.3695 13.3445 20.3695 13.0803V12.1174H20.8933V11.7053H20.3695V11.083L19.832 11.2127ZM21.3695 13.9353C21.5755 13.9353 21.7099 13.783 21.7099 13.5818C21.7099 13.3711 21.5712 13.2279 21.3695 13.2279C21.1724 13.2279 21.0292 13.3756 21.0292 13.5816C21.0292 13.7832 21.1679 13.9353 21.3695 13.9353ZM22.5218 13.8861V11.7053H21.9666V13.8861H22.5218ZM22.2443 10.7963C22.0607 10.7963 21.9353 10.926 21.9353 11.0961C21.9353 11.2619 22.0562 11.3918 22.24 11.3918C22.4324 11.3918 22.5533 11.2619 22.5533 11.0961C22.5488 10.9262 22.4324 10.7963 22.2443 10.7963ZM23.9162 11.6559C23.258 11.6559 22.7876 12.0949 22.7876 12.8113C22.7876 13.51 23.2623 13.9353 23.8804 13.9353C24.4357 13.9353 25 13.5771 25 12.7756C25 12.1127 24.5656 11.6559 23.9162 11.6559ZM23.9027 12.059C24.2789 12.059 24.4312 12.4486 24.4312 12.7889C24.4312 13.2277 24.2117 13.5369 23.8982 13.5369C23.5623 13.5369 23.3564 13.2189 23.3564 12.7978C23.3564 12.4352 23.513 12.059 23.9027 12.059Z" fill="black"/>
</svg>
