<svg width="15" height="15" viewBox="0 0 15 15" fill="none" xmlns="http://www.w3.org/2000/svg">
<g clip-path="url(#clip0_1622_696)">
<path d="M7.49995 2.5C6.47395 2.5 5.59195 2.777 4.89995 3.37C4.21195 3.96 3.76295 4.817 3.51295 5.886C3.48641 5.99922 3.50017 6.11815 3.55185 6.22232C3.60354 6.32649 3.68991 6.40939 3.79612 6.45675C3.90233 6.50411 4.02172 6.51297 4.13375 6.4818C4.24579 6.45064 4.34345 6.3814 4.40995 6.286C4.72595 5.834 5.04195 5.563 5.34595 5.423C5.63995 5.288 5.95695 5.261 6.32095 5.358C6.68695 5.456 6.97095 5.744 7.41595 6.228L7.43095 6.244C7.76695 6.609 8.17595 7.054 8.73595 7.4C9.31795 7.759 10.0409 8 10.9999 8C12.0259 8 12.9079 7.723 13.5999 7.13C14.2879 6.54 14.7379 5.683 14.9869 4.614C15.0135 4.50078 14.9997 4.38185 14.948 4.27768C14.8964 4.17351 14.81 4.09061 14.7038 4.04325C14.5976 3.99589 14.4782 3.98703 14.3661 4.0182C14.2541 4.04936 14.1564 4.1186 14.0899 4.214C13.7739 4.666 13.4579 4.937 13.1539 5.077C12.8599 5.212 12.5429 5.239 12.1789 5.142C11.8129 5.044 11.5289 4.756 11.0839 4.272L11.0689 4.256C10.7329 3.891 10.3239 3.446 9.76395 3.1C9.18195 2.741 8.45895 2.5 7.49995 2.5ZM3.99995 7C2.97395 7 2.09195 7.277 1.39995 7.87C0.711947 8.46 0.262947 9.317 0.0129475 10.386C-0.0135874 10.4992 0.000170812 10.6181 0.0518545 10.7223C0.103538 10.8265 0.189915 10.9094 0.296121 10.9567C0.402326 11.0041 0.521718 11.013 0.633752 10.9818C0.745785 10.9506 0.843453 10.8814 0.909947 10.786C1.22595 10.334 1.54195 10.063 1.84595 9.923C2.13995 9.788 2.45695 9.761 2.82095 9.858C3.18695 9.956 3.47095 10.244 3.91595 10.728L3.93095 10.744C4.26695 11.109 4.67595 11.554 5.23595 11.9C5.81795 12.259 6.54095 12.5 7.49995 12.5C8.52595 12.5 9.40795 12.223 10.0999 11.63C10.7879 11.04 11.2379 10.183 11.4869 9.114C11.5135 9.00078 11.4997 8.88185 11.448 8.77768C11.3964 8.67351 11.31 8.59062 11.2038 8.54325C11.0976 8.49589 10.9782 8.48703 10.8661 8.5182C10.7541 8.54936 10.6564 8.6186 10.5899 8.714C10.2739 9.166 9.95795 9.437 9.65395 9.577C9.35995 9.712 9.04295 9.739 8.67895 9.642C8.31295 9.544 8.02895 9.256 7.58395 8.772L7.56895 8.756C7.23395 8.391 6.82395 7.946 6.26395 7.6C5.68195 7.24 4.95895 7 3.99995 7Z" fill="black"/>
</g>
<defs>
<clipPath id="clip0_1622_696">
<rect width="15" height="15" fill="white"/>
</clipPath>
</defs>
</svg>
